<svg width="32" height="32" viewBox="0 0 32 32" fill="none" xmlns="http://www.w3.org/2000/svg">
<path d="M23.1112 15.1114H8.88883C8.3979 15.1114 8 15.5094 8 16.0003C8 16.4912 8.3979 16.8892 8.88883 16.8892H23.1112C23.6021 16.8892 24 16.4912 24 16.0003C24 15.5094 23.6021 15.1114 23.1112 15.1114ZM16.6286 9.5174C16.9757 9.17022 16.9757 8.6074 16.6286 8.26038C16.2814 7.9132 15.7186 7.9132 15.3714 8.26038L8.26064 15.3714C7.91347 15.7186 7.91347 16.2814 8.26064 16.6286L15.3714 23.7396C15.7186 24.0868 16.2814 24.0868 16.6286 23.7396C16.9757 23.3926 16.9757 22.8298 16.6286 22.4826L10.146 15.9998L16.6286 9.5174Z" fill="white"/>
<path fill-rule="evenodd" clip-rule="evenodd" d="M17.3357 10.2245L13.4486 14.1114H23.1112C24.1544 14.1114 25 14.9571 25 16.0003C25 17.0435 24.1544 17.8892 23.1112 17.8892H13.4495L17.3357 21.7755C18.0733 22.5131 18.0735 23.7092 17.3355 24.4469C16.5978 25.1844 15.402 25.1844 14.6643 24.4467L7.58144 17.3636C7.22308 17.0198 7 16.5361 7 16.0003C7 15.6895 7.07506 15.3962 7.20804 15.1376C7.29556 14.9671 7.41072 14.8071 7.55353 14.6643L14.6643 7.5533C14.6643 7.55329 14.6643 7.5533 14.6643 7.5533C15.4019 6.81562 16.5978 6.81557 17.3355 7.55312M15.3714 8.26038L8.26064 15.3714C8.21237 15.4197 8.17081 15.4721 8.13596 15.5276C8.04982 15.6645 8 15.8266 8 16.0003C8 16.2458 8.09978 16.4677 8.26064 16.6286C8.26702 16.635 8.27321 16.6415 8.27978 16.6477L15.3714 23.7396C15.7186 24.0868 16.2814 24.0868 16.6286 23.7396C16.9757 23.3926 16.9757 22.8298 16.6286 22.4826L11.0353 16.8892H23.1112C23.6021 16.8892 24 16.4912 24 16.0003C24 15.5094 23.6021 15.1114 23.1112 15.1114H11.0343L16.6286 9.5174C16.9757 9.17022 16.9757 8.6074 16.6286 8.26038C16.2814 7.9132 15.7186 7.9132 15.3714 8.26038ZM17.3357 10.2245C18.0732 9.48697 18.0733 8.2908 17.3355 7.55312L17.3357 10.2245Z" fill="white"/>
</svg>
