<svg width="32" height="32" viewBox="0 0 32 32" fill="none" xmlns="http://www.w3.org/2000/svg">
<path d="M7.5471 12.7849H12.7849V7.54716C12.7849 6.69284 13.4777 6 14.332 6H17.6679C18.5226 6 19.2151 6.69282 19.2151 7.54716V12.7849H24.4528C25.3072 12.7849 26 13.4776 26 14.3321V17.6681C26 18.5224 25.3072 19.2151 24.4528 19.2151H19.2151V24.4528C19.2151 25.3073 18.5224 26 17.6679 26H14.332C13.4776 26 12.7849 25.3072 12.7849 24.4528L12.7849 19.2151H7.54716C6.69271 19.2151 6 18.5223 6 17.6681V14.3321C6 13.4776 6.69283 12.7849 7.54716 12.7849H7.5471ZM21.5165 16.9938C21.5165 17.3484 21.7676 17.4933 22.0747 17.3162L23.7959 16.3225C24.1031 16.1451 24.1031 15.855 23.7959 15.6776L22.0747 14.6839C21.7675 14.5065 21.5165 14.6517 21.5165 15.0061V16.9938ZM14.6838 22.0749L15.6777 23.7961C15.8548 24.1031 16.1451 24.1031 16.3222 23.7961L17.3161 22.0749C17.4932 21.7678 17.3481 21.5167 16.9936 21.5167H15.0062C14.6517 21.5165 14.5066 21.7678 14.6838 22.0749H14.6838ZM15.0062 10.4837H16.9937C17.3481 10.4837 17.4932 10.2327 17.3161 9.92556L16.3222 8.2043C16.1451 7.89738 15.8549 7.89738 15.6778 8.2043L14.6839 9.92556C14.5068 10.2327 14.6518 10.4837 15.0063 10.4837H15.0062ZM8.20419 16.3225L9.92545 17.3162C10.2326 17.4933 10.4836 17.3484 10.4836 16.9937V15.0062C10.4836 14.6517 10.2326 14.5066 9.92545 14.6839L8.20419 15.6776C7.8972 15.855 7.8972 16.1452 8.20419 16.3225V16.3225Z" fill="white"/>
</svg>
