<svg width="32" height="32" viewBox="0 0 32 32" fill="none" xmlns="http://www.w3.org/2000/svg">
<path d="M12.7913 6.99902C12.7913 5.89445 13.6867 4.99902 14.7913 4.99902H17.2083C18.3128 4.99902 19.2083 5.89445 19.2083 6.99902V13.5411C19.2083 14.6457 18.3128 15.5411 17.2083 15.5411H14.7913C13.6867 15.5411 12.7913 14.6457 12.7913 13.5411V6.99902Z" fill="white"/>
<path d="M20.1246 6.99902C20.1246 5.89445 21.0201 4.99902 22.1246 4.99902H25C26.1046 4.99902 27 5.89445 27 6.99902V13.5411C27 14.6457 26.1046 15.5411 25 15.5411H22.1246C21.0201 15.5411 20.1246 14.6457 20.1246 13.5411V6.99902Z" fill="white"/>
<path d="M12.7913 18.5411C12.7913 17.4365 13.6867 16.5411 14.7913 16.5411H17.2083C18.3128 16.5411 19.2083 17.4365 19.2083 18.5411V25.0832C19.2083 26.1878 18.3128 27.0832 17.2083 27.0832H14.7913C13.6867 27.0832 12.7913 26.1878 12.7913 25.0832V18.5411Z" fill="white"/>
<path d="M20.1246 18.5411C20.1246 17.4365 21.0201 16.5411 22.1246 16.5411H25C26.1046 16.5411 27 17.4365 27 18.5411V25.0832C27 26.1878 26.1046 27.0832 25 27.0832H22.1246C21.0201 27.0832 20.1246 26.1878 20.1246 25.0832V18.5411Z" fill="white"/>
<path d="M4.99902 6.99902C4.99902 5.89445 5.89445 4.99902 6.99902 4.99902H9.87442C10.979 4.99902 11.8744 5.89445 11.8744 6.99902V13.5411C11.8744 14.6457 10.979 15.5411 9.87442 15.5411H6.99902C5.89445 15.5411 4.99902 14.6457 4.99902 13.5411V6.99902Z" fill="white"/>
<path d="M4.99902 18.5411C4.99902 17.4365 5.89445 16.5411 6.99902 16.5411H9.87442C10.979 16.5411 11.8744 17.4365 11.8744 18.5411V25.0832C11.8744 26.1878 10.979 27.0832 9.87442 27.0832H6.99902C5.89445 27.0832 4.99902 26.1878 4.99902 25.0832V18.5411Z" fill="white"/>
</svg>
