<svg width="17" height="10" viewBox="0 0 17 10" fill="none" xmlns="http://www.w3.org/2000/svg">
<path d="M15.2434 2.35352H16.1215C16.1215 2.35352 16.3529 2.3564 16.5761 2.4684C16.7993 2.5804 17.0003 2.78444 17.0003 3.23481V6.76549C17.0003 7.21727 16.7993 7.41976 16.5761 7.53175C16.3529 7.64375 16.1215 7.64664 16.1215 7.64664H15.2434V2.35352Z" fill="#564E69"/>
<path d="M1.46747 0C1.46747 0 1.08841 0.00354493 0.718732 0.18894C0.348953 0.374465 0.000244141 0.732391 0.000244141 1.46938V8.5304C0.000244141 9.26595 0.348953 9.6253 0.718732 9.81084C1.08838 9.99637 1.46747 9.99979 1.46747 9.99979H13.1899C13.1899 9.99979 13.569 9.99624 13.9388 9.81084C14.3084 9.62532 14.6571 9.26793 14.6571 8.5304V1.46938C14.6571 0.729365 14.3084 0.374482 13.9388 0.18894C13.569 0.00354593 13.1899 0 13.1899 0H1.46747Z" fill="#564E69"/>
<path d="M8.27 2L8.27 4.78081L13 3.47947L6.73 8L6.73 5.21919L2 6.52053L8.27 2Z" fill="#14FF00"/>
</svg>
