<svg width="14" height="14" viewBox="0 0 14 14" fill="none" xmlns="http://www.w3.org/2000/svg">
<path d="M0.582621 1.78621C0.250349 1.45394 0.250349 0.915217 0.582621 0.582945C0.914893 0.250672 1.45361 0.250672 1.78589 0.582944L7.00004 5.7971L12.2141 0.583073C12.5463 0.250801 13.0851 0.2508 13.4173 0.583073C13.7496 0.915345 13.7496 1.45407 13.4173 1.78634L8.20331 7.00037L13.4174 12.2145C13.7497 12.5468 13.7497 13.0855 13.4174 13.4178C13.0852 13.75 12.5464 13.75 12.2142 13.4178L7.00004 8.20363L1.78578 13.4179C1.45351 13.7502 0.91479 13.7502 0.582518 13.4179C0.250245 13.0856 0.250245 12.5469 0.582517 12.2146L5.79678 7.00037L0.582621 1.78621Z" fill="#00FBB7"/>
</svg>
