<svg width="32" height="32" viewBox="0 0 32 32" fill="none" xmlns="http://www.w3.org/2000/svg">
<path d="M25.411 14.0547L23.1819 13.6761C23.0557 13.2764 22.8874 12.898 22.6982 12.5194L24.002 10.6898C24.1913 10.4163 24.1703 10.0379 23.939 9.80648L22.1513 8.01883C21.92 7.78748 21.5415 7.74539 21.268 7.95575L19.4384 9.25959C19.0809 9.07035 18.6813 8.90209 18.2817 8.77593L17.9242 6.56786C17.8611 6.23134 17.5877 6 17.2512 6H14.7276C14.3911 6 14.1178 6.23134 14.0545 6.56786L13.6761 8.79704C13.2764 8.92319 12.898 9.09145 12.5194 9.2807L10.6898 7.97685C10.4163 7.78761 10.0379 7.80859 9.80648 8.03993L8.01883 9.82759C7.78749 10.0589 7.74539 10.4374 7.95575 10.7109L9.25959 12.5405C9.07035 12.898 8.90209 13.2976 8.77593 13.6972L6.56786 14.0547C6.23134 14.1177 6 14.3912 6 14.7277V17.2513C6 17.5878 6.23134 17.8611 6.56786 17.9244L8.79703 18.3028C8.92319 18.7024 9.09145 19.0809 9.2807 19.4595L7.97685 21.2891C7.78761 21.5626 7.80859 21.941 8.03993 22.1724L9.82759 23.9601C10.0589 24.1914 10.4374 24.2335 10.7109 24.0231L12.5405 22.7193C12.898 22.9085 13.2976 23.0768 13.6972 23.203L14.0756 25.4321C14.1387 25.7687 14.4122 26 14.7487 26H17.2723C17.6088 26 17.8821 25.7687 17.9453 25.4321L18.3028 23.1818C18.7024 23.0557 19.0809 22.8874 19.4595 22.6982L21.2891 24.002C21.5626 24.1912 21.941 24.1703 22.1724 23.9389L23.9601 22.1513C24.1914 21.9199 24.2335 21.5415 24.0231 21.268L22.7193 19.4384C22.9085 19.0809 23.0768 18.6813 23.203 18.2817L25.4321 17.9032C25.7687 17.8401 26 17.5667 26 17.2302L25.9999 14.7275C25.9789 14.3912 25.7475 14.1177 25.411 14.0546L25.411 14.0547ZM15.9894 19.5857C13.9916 19.5857 12.3932 17.9663 12.3932 15.9894C12.3932 13.9916 14.0126 12.3931 15.9894 12.3931C17.9663 12.3931 19.5857 13.9915 19.5857 15.9894C19.5857 17.9873 17.9873 19.5857 15.9894 19.5857Z" fill="white"/>
</svg>
