<svg width="32" height="32" viewBox="0 0 32 32" fill="none" xmlns="http://www.w3.org/2000/svg">
<path d="M13.5239 13.5164H18.4819V18.4745H13.5239V13.5164Z" fill="white"/>
<path d="M25.5714 18.4281C25.4324 18.4281 25.2934 18.4512 25.1776 18.4976L24.274 17.4318C24.1581 17.2928 23.996 17.2233 23.8338 17.2233H21.7254V14.7675H23.8338C23.996 14.7675 24.1581 14.698 24.274 14.5591L25.1776 13.4932C25.3166 13.5396 25.4324 13.5627 25.5714 13.5627C26.3591 13.5627 27.0078 12.914 27.0078 12.1263C27.0078 11.3387 26.3591 10.6899 25.5714 10.6899C24.7837 10.6899 24.135 11.3387 24.135 12.1263C24.135 12.3581 24.1814 12.5666 24.2973 12.7519L23.5791 13.6091H21.7489L21.7486 11.8251C21.7486 10.9679 21.0535 10.2497 20.1732 10.2497H18.3892V8.41953L19.2464 7.70136C19.4318 7.79396 19.6402 7.86362 19.872 7.86362C20.6597 7.86362 21.3084 7.2149 21.3084 6.42722C21.3084 5.63954 20.6597 4.99083 19.872 4.99083C19.0843 4.99083 18.4356 5.63954 18.4356 6.42722C18.4356 6.56621 18.4587 6.70519 18.5051 6.82106L17.4393 7.72463C17.3003 7.8405 17.2308 8.0026 17.2308 8.16486V10.2732L14.775 10.2729V8.16454C14.775 8.00229 14.7055 7.84019 14.5665 7.7243L13.5007 6.82074C13.5471 6.68176 13.5702 6.56588 13.5702 6.4269C13.5702 5.63922 12.9215 4.99051 12.1338 4.99051C11.3461 4.99051 10.6974 5.63922 10.6974 6.4269C10.6974 7.21458 11.3461 7.86329 12.1338 7.86329C12.3655 7.86329 12.574 7.81691 12.7594 7.70104L13.6166 8.41921V10.2494L11.8326 10.2497C10.9754 10.2497 10.2572 10.9448 10.2572 11.8251V13.6091H8.42699L7.70882 12.7519C7.80142 12.5666 7.87107 12.3581 7.87107 12.1263C7.87107 11.3387 7.22236 10.6899 6.43468 10.6899C5.647 10.6899 4.99829 11.3387 4.99829 12.1263C4.99829 12.914 5.647 13.5627 6.43468 13.5627C6.57367 13.5627 6.71265 13.5396 6.82852 13.4932L7.73209 14.5591C7.84796 14.698 8.01005 14.7675 8.17232 14.7675H10.2807V17.2233H8.17232C8.01007 17.2233 7.84798 17.2928 7.73209 17.4318L6.82852 18.4976C6.68954 18.4512 6.57366 18.4281 6.43468 18.4281C5.647 18.4281 4.99829 19.0768 4.99829 19.8645C4.99829 20.6522 5.647 21.3009 6.43468 21.3009C7.22236 21.3009 7.87107 20.6522 7.87107 19.8645C7.87107 19.6328 7.82469 19.4243 7.70882 19.2389L8.42699 18.3818H10.2572V20.1658C10.2572 21.0229 10.9523 21.7411 11.8326 21.7411H13.6166V23.5713L12.7594 24.2895C12.574 24.1969 12.3655 24.1272 12.1338 24.1272C11.3461 24.1272 10.6974 24.776 10.6974 25.5636C10.6974 26.3513 11.3461 27 12.1338 27C12.9215 27 13.5702 26.3513 13.5702 25.5636C13.5702 25.4247 13.5471 25.2857 13.5007 25.1698L14.5665 24.2662C14.7055 24.1504 14.775 23.9883 14.775 23.826V21.7176H17.2308V23.826C17.2308 23.9883 17.3003 24.1503 17.4393 24.2662L18.5051 25.1698C18.4587 25.3088 18.4356 25.4247 18.4356 25.5636C18.4356 26.3513 19.0843 27 19.872 27C20.6597 27 21.3084 26.3513 21.3084 25.5636C21.3084 24.776 20.6597 24.1272 19.872 24.1272C19.6402 24.1272 19.4317 24.1736 19.2464 24.2895L18.3892 23.5713V21.7411H20.1732C21.0304 21.7411 21.7486 21.046 21.7486 20.1658V18.3818H23.5788L24.297 19.2389C24.2044 19.4243 24.1347 19.6328 24.1347 19.8645C24.1347 20.6522 24.7834 21.3009 25.5711 21.3009C26.3588 21.3009 27.0075 20.6522 27.0075 19.8645C27.0078 19.0537 26.3591 18.4281 25.5714 18.4281H25.5714ZM19.6403 19.0537C19.6403 19.3781 19.3855 19.6329 19.0611 19.6329H12.9447C12.6204 19.6329 12.3655 19.3781 12.3655 19.0537V12.9373C12.3655 12.6129 12.6204 12.3581 12.9447 12.3581H19.0611C19.3855 12.3581 19.6403 12.6129 19.6403 12.9373V19.0537Z" fill="white"/>
</svg>
