<svg width="32" height="32" viewBox="0 0 32 32" fill="none" xmlns="http://www.w3.org/2000/svg">
<path d="M10.7998 22.4375C10.6868 22.7453 10.3417 22.8988 10.0374 22.7765L8.2005 22.0376C7.7718 21.8652 7.51706 21.4215 7.5843 20.9644L7.88017 18.9527C7.91952 18.6852 7.84885 18.4131 7.68429 18.1986L6.46681 16.6113C6.19144 16.2523 6.19144 15.7531 6.46682 15.3941L7.68428 13.8068C7.84885 13.5923 7.91952 13.3202 7.88016 13.0527L7.5842 11.0408C7.517 10.584 7.77125 10.1406 8.19942 9.96789L10.0431 9.22411C10.347 9.1015 10.6921 9.25449 10.8054 9.56204V9.56204C10.9138 9.85651 10.7687 10.1839 10.4778 10.3013L9.4407 10.7199C9.01254 10.8927 8.75837 11.3362 8.82567 11.793L9.0598 13.3821C9.09923 13.6497 9.02856 13.9219 8.86391 14.1365L7.89925 15.394C7.6238 15.7531 7.62383 16.2524 7.89933 16.6114L8.86382 17.8684C9.02852 18.083 9.09923 18.3552 9.05979 18.6229L8.82582 20.2109C8.75845 20.6681 9.01321 21.112 9.44203 21.2844L10.471 21.6983C10.7623 21.8154 10.9079 22.1427 10.7998 22.4375V22.4375Z" fill="white"/>
<path d="M22.002 22.8276C21.7115 22.9253 21.3945 22.7855 21.2706 22.5052V22.5052C21.1297 22.1862 21.2932 21.8149 21.6239 21.7037L22.9358 21.2621C23.4046 21.1043 23.6876 20.6275 23.6015 20.1404L23.3453 18.6899C23.2911 18.3829 23.3831 18.0682 23.5942 17.8388L24.6605 16.68C25.0127 16.2973 25.0128 15.7086 24.6606 15.3258L23.5942 14.1666C23.3831 13.9371 23.2911 13.6224 23.3454 13.3154L23.6021 11.8644C23.6882 11.3775 23.4056 10.9008 22.9371 10.7427L21.616 10.2969C21.2853 10.1854 21.122 9.81378 21.2634 9.4947V9.4947C21.3875 9.21445 21.7048 9.07499 21.9952 9.17299L24.4238 9.99243C24.8921 10.1504 25.1747 10.6268 25.0889 11.1135L24.7588 12.9864C24.7048 13.2932 24.7968 13.6077 25.0077 13.837L26.3773 15.3259C26.7293 15.7086 26.7293 16.2972 26.3773 16.6799L25.0078 18.1687C24.7968 18.3981 24.7048 18.7126 24.7589 19.0195L25.0893 20.8918C25.1752 21.379 24.8921 21.8558 24.4232 22.0134L22.002 22.8276Z" fill="white"/>
<path d="M12.8319 20.3484C12.7212 20.6944 12.3323 20.8649 12.0029 20.712L11.4807 20.4697C11.0856 20.2864 10.8546 19.8683 10.9097 19.4362L11.0309 18.4851C11.0614 18.2456 11.0042 18.003 10.8699 17.8024L10.3725 17.0595C10.1471 16.7228 10.1471 16.2834 10.3725 15.9468L10.8699 15.2039C11.0042 15.0032 11.0614 14.7607 11.0309 14.5211L10.9095 13.5685C10.8545 13.1371 11.0847 12.7197 11.4788 12.5358L12.0075 12.2892C12.3366 12.1357 12.7259 12.3056 12.8371 12.6514V12.6514C12.9302 12.9409 12.7934 13.2544 12.5179 13.383L12.4325 13.4229C12.1528 13.5535 11.9894 13.8498 12.0282 14.156L12.1193 14.8743C12.1497 15.1135 12.0925 15.3556 11.9585 15.5561L11.697 15.947C11.4718 16.2836 11.4719 16.7227 11.6971 17.0592L11.9583 17.4495C12.0925 17.65 12.1496 17.8922 12.1193 18.1315L12.0279 18.8521C11.9893 19.1563 12.1521 19.4505 12.4303 19.5795L12.5108 19.6168C12.787 19.7448 12.9247 20.0585 12.8319 20.3484V20.3484Z" fill="white"/>
<path d="M20.9921 20.7109C20.6631 20.8644 20.2741 20.6946 20.1629 20.3491V20.3491C20.0698 20.0598 20.2065 19.7464 20.4818 19.6178L20.5676 19.5777C20.8473 19.4471 21.0106 19.1508 20.9717 18.8445L20.8808 18.1278C20.8504 17.8883 20.9076 17.6459 21.042 17.4454L21.3025 17.0564C21.528 16.7197 21.5281 16.2803 21.3027 15.9435L21.0418 15.554C20.9076 15.3534 20.8504 15.1111 20.8807 14.8717L20.9717 14.1548C21.0106 13.8486 20.8472 13.5524 20.5676 13.4219L20.4821 13.3821C20.2066 13.2535 20.0699 12.94 20.163 12.6507V12.6507C20.2742 12.3052 20.663 12.1355 20.992 12.2888L21.5209 12.5353C21.9152 12.7191 22.1454 13.1367 22.0904 13.5682L21.9692 14.5189C21.9386 14.7586 21.9959 15.0012 22.1304 15.202L22.6271 15.9434C22.8527 16.2801 22.8527 16.7198 22.6271 17.0566L22.1304 17.798C21.9959 17.9987 21.9386 18.2414 21.9692 18.4811L22.0904 19.4314C22.1454 19.8628 21.9153 20.2803 21.5212 20.4642L20.9921 20.7109Z" fill="white"/>
<path d="M19 16.5C18.9164 13.1663 14.0832 13.1671 14 16.5C14.0836 19.8336 18.9168 19.833 19 16.5Z" fill="white"/>
</svg>
