<svg width="87" height="22" viewBox="0 0 87 22" fill="none" xmlns="http://www.w3.org/2000/svg">
    <defs>
        <linearGradient id="paint0_linear_669_496" x1="43.5" y1="0" x2="43.5" y2="22" gradientUnits="userSpaceOnUse">
            <stop stop-color="#0EC5FA"/>
            <stop offset="1" stop-color="#1F78F2"/>
        </linearGradient>
    </defs>
    <rect width="87" height="22" rx="11" fill="url(#paint0_linear_669_496)"/>
<path d="M70.014 14.56L70.0156 14.5606L69.4361 15.6023C69.2245 15.9826 68.756 16.1129 68.3896 15.8933C68.0232 15.6738 67.8976 15.1875 68.1092 14.8073L68.5361 14.0398L68.5771 13.9662C68.6502 13.857 68.8308 13.6686 69.192 13.704C69.192 13.704 70.042 13.7998 70.1034 14.2583C70.1035 14.2583 70.1119 14.4091 70.014 14.56ZM78.2339 11.8992H76.4267C76.3036 11.8906 76.2499 11.845 76.2288 11.8185L76.2274 11.8161L74.2928 8.33846L74.2903 8.3402L74.1743 8.16754C73.9842 7.86577 73.6822 8.63762 73.6822 8.63762C73.3217 9.49767 73.7334 10.4755 73.8769 10.7711L76.5639 15.6013C76.7755 15.9815 77.244 16.1118 77.6104 15.8923C77.9768 15.6727 78.1024 15.1865 77.8908 14.8062L77.2189 13.5984C77.2059 13.5691 77.1832 13.4896 77.321 13.4893H78.2339C78.657 13.4893 79 13.1333 79 12.6942C79 12.2551 78.657 11.8992 78.2339 11.8992ZM74.7237 12.98C74.7237 12.98 74.8202 13.4893 74.4469 13.4893H74.0737V13.4893H67.7661C67.343 13.4893 67 13.1333 67 12.6942C67 12.2551 67.343 11.8992 67.7661 11.8992H69.4836C69.7609 11.8825 69.8267 11.7164 69.8267 11.7164L69.8282 11.7172L72.0702 7.68691L72.0695 7.68678C72.1104 7.60892 72.0764 7.53536 72.0704 7.52371L71.33 6.19275C71.1185 5.81247 71.244 5.3262 71.6104 5.10666C71.9768 4.8871 72.4454 5.01739 72.6569 5.39767L73.0003 6.01497L73.3431 5.39877C73.5546 5.01849 74.0232 4.88819 74.3896 5.10775C74.756 5.32731 74.8815 5.81358 74.67 6.19384L71.5502 11.802C71.5365 11.8361 71.5324 11.8897 71.6339 11.8992H73.4987L73.4991 11.918C73.4991 11.918 74.5769 11.9354 74.7237 12.98Z" fill="white"/>
<path d="M14.2695 15H15.8633L12.8633 6.54492H11.1582L8.1582 15H9.7168L10.4375 12.8145H13.5488L14.2695 15ZM11.9727 8.03906H12.0137L13.1914 11.6484H10.7891L11.9727 8.03906ZM20.0352 8.68359C19.1328 8.68359 18.4297 9.14062 18.0781 9.86133H18.0488V8.78906H16.625V17.0449H18.084V13.9688H18.1133C18.4531 14.666 19.1562 15.0996 20.0586 15.0996C21.6172 15.0996 22.6133 13.875 22.6133 11.8945C22.6133 9.9082 21.6113 8.68359 20.0352 8.68359ZM19.5898 13.9043C18.6816 13.9043 18.0781 13.1133 18.0723 11.8945C18.0781 10.6875 18.6816 9.88477 19.5898 9.88477C20.5332 9.88477 21.1191 10.6699 21.1191 11.8945C21.1191 13.125 20.5332 13.9043 19.5898 13.9043ZM26.9609 8.68359C26.0586 8.68359 25.3555 9.14062 25.0039 9.86133H24.9746V8.78906H23.5508V17.0449H25.0098V13.9688H25.0391C25.3789 14.666 26.082 15.0996 26.9844 15.0996C28.543 15.0996 29.5391 13.875 29.5391 11.8945C29.5391 9.9082 28.5371 8.68359 26.9609 8.68359ZM26.5156 13.9043C25.6074 13.9043 25.0039 13.1133 24.998 11.8945C25.0039 10.6875 25.6074 9.88477 26.5156 9.88477C27.459 9.88477 28.0449 10.6699 28.0449 11.8945C28.0449 13.125 27.459 13.9043 26.5156 13.9043ZM32.6738 12.6387C32.7441 14.1855 34.0391 15.1406 35.9961 15.1406C38.0293 15.1406 39.3008 14.1211 39.3008 12.5039C39.3008 11.25 38.5566 10.5352 36.7754 10.166L35.8613 9.97852C34.8066 9.75586 34.3848 9.38672 34.3848 8.8125C34.3848 8.10352 35.0527 7.6582 35.9902 7.6582C36.957 7.6582 37.625 8.13867 37.6953 8.93555H39.1426C39.1074 7.42383 37.8711 6.4043 36.002 6.4043C34.168 6.4043 32.8613 7.41211 32.8613 8.90039C32.8613 10.1367 33.6523 10.9336 35.3457 11.2793L36.2539 11.4668C37.3555 11.6953 37.7773 12.0703 37.7773 12.6797C37.7773 13.3828 37.0684 13.8867 36.0488 13.8867C34.9941 13.8867 34.2324 13.418 34.1211 12.6387H32.6738ZM40.6895 7.33594V8.78906H39.7988V9.91406H40.6895V13.3477C40.6895 14.5547 41.2168 15.0293 42.5586 15.0293C42.8691 15.0293 43.1562 15.0059 43.3145 14.9707V13.8574C43.2207 13.875 43.0332 13.8867 42.8984 13.8867C42.3828 13.8867 42.1484 13.6523 42.1484 13.1426V9.91406H43.3203V8.78906H42.1484V7.33594H40.6895ZM46.9473 15.123C48.7695 15.123 49.9531 13.9102 49.9531 11.8945C49.9531 9.88477 48.7578 8.66016 46.9473 8.66016C45.1367 8.66016 43.9414 9.89062 43.9414 11.8945C43.9414 13.9102 45.125 15.123 46.9473 15.123ZM46.9473 13.9688C46.0215 13.9688 45.4238 13.2188 45.4238 11.8945C45.4238 10.5762 46.0273 9.82031 46.9473 9.82031C47.873 9.82031 48.4707 10.5762 48.4707 11.8945C48.4707 13.2188 47.873 13.9688 46.9473 13.9688ZM50.8906 15H52.3496V11.3848C52.3496 10.5117 52.8477 9.97852 53.6738 9.97852C53.9199 9.97852 54.1426 10.0137 54.2656 10.0605V8.74219C54.1602 8.71875 53.9961 8.68359 53.8086 8.68359C53.0762 8.68359 52.5312 9.11719 52.3203 9.87305H52.291V8.78906H50.8906V15ZM57.459 9.79102C58.2969 9.79102 58.8594 10.4062 58.8887 11.2852H55.9883C56.0469 10.418 56.6387 9.79102 57.459 9.79102ZM58.8945 13.1426C58.7363 13.6582 58.2207 13.998 57.541 13.998C56.5859 13.998 55.9766 13.3301 55.9766 12.334V12.2461H60.3184V11.7715C60.3184 9.88477 59.2168 8.66016 57.4531 8.66016C55.6602 8.66016 54.5234 9.95508 54.5234 11.918C54.5234 13.8984 55.6484 15.123 57.5117 15.123C58.9824 15.123 60.0723 14.3145 60.2598 13.1426H58.8945Z" fill="white"/>

</svg>
