<svg width="32" height="32" viewBox="0 0 32 32" fill="none" xmlns="http://www.w3.org/2000/svg">
<path d="M20.0345 21.0864C20.0345 23.3025 18.2382 25.0988 16.0221 25.0988C13.806 25.0988 12.0096 23.3025 12.0096 21.0864C12.0096 18.8703 13.806 17.074 16.0221 17.074C18.2382 17.074 20.0345 18.8703 20.0345 21.0864Z" fill="white"/>
<path d="M18.7055 23.7678C17.5964 24.8682 15.8675 25.1987 14.441 24.5355C13.7081 24.1962 13.0948 23.6308 12.7034 22.924C12.3293 22.252 12.1749 21.4756 12.2467 20.7101C12.3946 19.127 13.5798 17.7764 15.1174 17.398C16.6571 17.0174 18.3186 17.6655 19.1907 18.9921C20.0562 20.31 20.0105 22.0541 19.0841 23.3286C18.9688 23.4874 18.8405 23.6309 18.7057 23.7679C18.5078 23.9658 18.8166 24.2746 19.0123 24.0746C19.6256 23.457 20.0475 22.6567 20.1889 21.7976C20.3302 20.943 20.2128 20.0687 19.8474 19.2836C19.1102 17.6939 17.3791 16.7066 15.633 16.874C14.7587 16.9588 13.9345 17.3068 13.2647 17.8766C12.5992 18.4442 12.1186 19.2271 11.912 20.0774C11.7141 20.8973 11.7598 21.7781 12.0599 22.5675C12.3752 23.4004 12.945 24.1159 13.6844 24.6117C15.1284 25.5773 17.1118 25.5381 18.5101 24.503C18.6862 24.3725 18.8537 24.2311 19.0103 24.0746C19.2125 23.8788 18.9037 23.5722 18.7058 23.7679L18.7055 23.7678Z" fill="white"/>
<path d="M20.7435 16.3605C18.136 13.753 13.9085 13.753 11.301 16.3605L6.21643 11.276C11.6314 5.86097 20.4111 5.86097 25.8261 11.276L20.7435 16.3605Z" fill="white"/>
<path d="M20.8978 16.2062C19.8931 15.208 18.5948 14.523 17.1964 14.2881C15.8176 14.0554 14.3976 14.2403 13.1275 14.8231C12.3925 15.1602 11.7205 15.6365 11.1464 16.2062H11.453L6.36847 11.1217V11.4283C7.38406 10.4149 8.55188 9.56241 9.83061 8.91001C11.0637 8.28369 12.3924 7.84872 13.756 7.62038C15.0978 7.39203 16.4788 7.37246 17.8273 7.54862C19.1778 7.72694 20.5087 8.11187 21.744 8.68383C23.0379 9.28406 24.234 10.0822 25.2801 11.0499C25.4127 11.1739 25.5454 11.3 25.6737 11.4283V11.1217L23.9491 12.8462C23.0379 13.7575 22.1289 14.6665 21.2177 15.5777C21.0089 15.7865 20.7979 15.9975 20.5892 16.2062C20.3913 16.4041 20.6979 16.7129 20.8958 16.5129C21.4699 15.9387 22.0462 15.3624 22.6203 14.7883C23.5315 13.8771 24.4406 12.9681 25.3518 12.0568L25.9803 11.4283C26.063 11.3457 26.063 11.2043 25.9803 11.1217C24.9408 10.0843 23.7404 9.2036 22.4312 8.53596C21.1611 7.88789 19.7954 7.43336 18.3885 7.1985C17.001 6.9658 15.5831 6.93536 14.1868 7.12021C12.771 7.30723 11.3923 7.70521 10.094 8.30326C8.76309 8.91872 7.5322 9.74944 6.45573 10.7455C6.32307 10.8694 6.19041 10.9956 6.0621 11.1239C5.97946 11.2065 5.97946 11.3479 6.0621 11.4305L7.78665 13.1551C8.69786 14.0663 9.60688 14.9753 10.5181 15.8865C10.7269 16.0953 10.9379 16.3063 11.1466 16.515C11.2293 16.5977 11.3706 16.5977 11.4533 16.515C12.4036 15.569 13.6236 14.9384 14.9459 14.7122C16.2138 14.4947 17.5555 14.6731 18.7212 15.2124C19.4149 15.5342 20.0435 15.9757 20.585 16.515C20.7872 16.7108 21.096 16.4041 20.8981 16.2062H20.8978Z" fill="white"/>
</svg>
