<svg width="32" height="32" viewBox="0 0 32 32" fill="none" xmlns="http://www.w3.org/2000/svg">
<path d="M25.5181 16.5999C25.0128 14.0943 23.939 10.7392 20.6755 10.6543C19.9807 10.6331 19.2017 10.718 18.3595 10.8879C17.749 11.0153 17.1384 11.079 16.5067 11.1002V8.50962C16.5067 8.23358 16.2751 8 16.0014 8C15.7277 8 15.4961 8.23358 15.4961 8.50962V11.1002C14.8645 11.079 14.2539 10.994 13.6433 10.8879C12.8222 10.718 12.0221 10.6543 11.3273 10.6543C8.06382 10.718 6.99003 14.073 6.48472 16.5999C5.91624 19.3816 5.72675 21.505 6.58999 22.8003C7.01109 23.4161 7.64272 23.7983 8.46386 23.947C10.6114 24.3292 12.6537 22.6305 14.0854 19.3179H17.9174C19.2017 22.3332 20.9914 23.9894 22.9284 23.9894C23.1179 23.9894 23.3284 23.9682 23.5179 23.947C24.3601 23.7983 24.9918 23.4161 25.3918 22.8003C26.2761 21.505 26.0866 19.3816 25.5181 16.5999ZM24.5707 22.2482C24.318 22.6305 23.918 22.864 23.3495 22.9702C20.9914 23.3737 19.4123 20.2947 18.8438 18.9569C18.6754 18.5747 18.3174 18.3411 17.9174 18.3411H14.0854C13.6854 18.3411 13.3275 18.5747 13.159 18.9569C12.5906 20.2947 11.0115 23.3949 8.65335 22.9702C8.08487 22.864 7.68483 22.6305 7.43218 22.2482C6.71632 21.1865 7.03214 18.9994 7.47429 16.8122C8.19015 13.3086 9.39026 11.7372 11.3483 11.6948C11.3905 11.6948 11.4536 11.6948 11.4957 11.6948C12.0853 11.6948 12.7379 11.7585 13.4328 11.9071C15.0961 12.2469 16.8647 12.2469 18.528 11.9071C19.2859 11.7585 20.0018 11.6948 20.6124 11.6948C22.5915 11.7372 23.7916 13.3298 24.4864 16.8122C24.9707 18.9994 25.2865 21.1865 24.5707 22.2482Z" fill="white"/>
<path d="M13.3272 15.0924H12.3166V14.0732C12.3166 13.9458 12.2113 13.8184 12.0639 13.8184H11.306C11.1796 13.8184 11.0533 13.9245 11.0533 14.0732V15.0924H10.0427C9.91637 15.0924 9.79004 15.1986 9.79004 15.3472V16.1117C9.79004 16.2391 9.89531 16.3665 10.0427 16.3665H11.0533V17.3857C11.0533 17.5131 11.1586 17.6405 11.306 17.6405H12.0639C12.1903 17.6405 12.3166 17.5344 12.3166 17.3857V16.3665H13.3272C13.4535 16.3665 13.5799 16.2603 13.5799 16.1117V15.3472C13.5799 15.2198 13.4746 15.0924 13.3272 15.0924Z" fill="white"/>
<path d="M20.2123 13.6697C19.8333 13.6697 19.5386 13.967 19.5386 14.3492C19.5386 14.7314 19.8333 15.0287 20.2123 15.0287C20.5913 15.0287 20.8861 14.7314 20.8861 14.3492C20.8861 13.9882 20.5913 13.6697 20.2123 13.6697Z" fill="white"/>
<path d="M21.5592 15.05C21.1803 15.05 20.8855 15.3473 20.8855 15.7295C20.8855 16.1118 21.1803 16.409 21.5592 16.409C21.9382 16.409 22.233 16.1118 22.233 15.7295C22.233 15.3473 21.9382 15.05 21.5592 15.05Z" fill="white"/>
<path d="M18.8434 15.05C18.4644 15.05 18.1697 15.3473 18.1697 15.7295C18.1697 16.1118 18.4644 16.409 18.8434 16.409C19.2224 16.409 19.5172 16.1118 19.5172 15.7295C19.5172 15.3686 19.2224 15.05 18.8434 15.05Z" fill="white"/>
<path d="M20.1913 16.4302C19.8123 16.4302 19.5176 16.7275 19.5176 17.1097C19.5176 17.4919 19.8123 17.7892 20.1913 17.7892C20.5703 17.7892 20.8651 17.4919 20.8651 17.1097C20.8651 16.7275 20.5703 16.4302 20.1913 16.4302Z" fill="white"/>
</svg>
