<svg width="32" height="32" viewBox="0 0 32 32" fill="none" xmlns="http://www.w3.org/2000/svg">
<path d="M7.33657 8.96083C6.888 8.51226 6.888 7.78499 7.33657 7.33643C7.78513 6.88786 8.5124 6.88786 8.96097 7.33643L16.0001 14.3755L23.039 7.3366C23.4876 6.88803 24.2148 6.88803 24.6634 7.3366C25.112 7.78517 25.112 8.51244 24.6634 8.961L17.6245 15.9999L24.6635 23.039C25.1121 23.4876 25.1121 24.2148 24.6635 24.6634C24.215 25.112 23.4877 25.112 23.0391 24.6634L16.0001 17.6243L8.96083 24.6636C8.51226 25.1121 7.78499 25.1121 7.33643 24.6636C6.88786 24.215 6.88786 23.4877 7.33643 23.0392L14.3757 15.9999L7.33657 8.96083Z" fill="#8652B0"/>
</svg>
