<svg width="60" height="60" viewBox="0 0 60 60" fill="none" xmlns="http://www.w3.org/2000/svg">
<g filter="url(#filter0_d_1791_4216)">
<path fill-rule="evenodd" clip-rule="evenodd" d="M20.9448 6.00171C21.5979 6.07596 21.6438 6.17158 21.9263 6.35961L36.6223 17.2219C37.5158 17.9502 37.5432 19.3657 36.6223 20.1178L23.8856 29.5299L36.6223 38.9442C36.6223 38.9442 37.2369 39.4465 37.3376 40.128C37.4347 40.7696 37.1341 41.4224 36.6223 41.84L21.9263 52.7003C20.7687 53.4738 19.0554 52.6676 18.9874 51.2525V33.1504L10.9046 39.1244C10.9046 39.1244 9.6516 39.7608 8.77282 39.1749C7.90512 38.5983 7.73068 37.2301 8.44072 36.4598C8.54514 36.346 8.57995 36.3242 8.69953 36.2266L17.7619 29.5295L8.69953 22.8324C8.69953 22.8324 7.32197 21.0518 8.6336 19.9869C9.26298 19.4753 10.215 19.4753 10.9046 19.9365L18.9874 25.9089V7.80676C18.9874 7.80676 19.3527 5.97372 20.9448 6.00079L20.9448 6.00171ZM22.6618 47.631L32.4579 40.3916L22.6618 33.1502V47.631ZM42.1075 29.5288L37.8955 25.3785C36.8849 24.3339 37.5654 22.3091 39.2165 22.2894C39.246 22.2894 39.2771 22.291 39.3066 22.291C39.7525 22.329 40.1669 22.5117 40.4937 22.8188L44.7057 26.9691L48.9197 22.8188C49.2903 22.4698 49.7747 22.2838 50.2846 22.289C51.7264 22.3758 52.5962 24.2613 51.5176 25.3781L47.3056 29.5284L51.5176 33.6788C52.7817 34.9856 50.8755 38.0768 48.9198 36.2401L44.7058 32.0878L40.4938 36.2401C39.1802 37.4728 36.0324 35.6074 37.896 33.6788L42.1081 29.5284L42.1075 29.5288ZM22.6618 25.9083L32.4579 18.6689L22.6618 11.4275V25.9083Z" fill="#EE1D52"/>
</g>
<defs>
<filter id="filter0_d_1791_4216" x="3.99997" y="2.00049" width="52" height="55" filterUnits="userSpaceOnUse" color-interpolation-filters="sRGB">
<feFlood flood-opacity="0" result="BackgroundImageFix"/>
<feColorMatrix in="SourceAlpha" type="matrix" values="0 0 0 0 0 0 0 0 0 0 0 0 0 0 0 0 0 0 127 0" result="hardAlpha"/>
<feOffset/>
<feGaussianBlur stdDeviation="2"/>
<feComposite in2="hardAlpha" operator="out"/>
<feColorMatrix type="matrix" values="0 0 0 0 0.933333 0 0 0 0 0.113725 0 0 0 0 0.321569 0 0 0 0.25 0"/>
<feBlend mode="normal" in2="BackgroundImageFix" result="effect1_dropShadow_1791_4216"/>
<feBlend mode="normal" in="SourceGraphic" in2="effect1_dropShadow_1791_4216" result="shape"/>
</filter>
</defs>
</svg>
