<svg width="60" height="65" viewBox="0 0 60 65" fill="none" xmlns="http://www.w3.org/2000/svg">
<g filter="url(#filter0_d_1791_4977)">
<path d="M21.296 9.74512L21.296 7.02283C21.296 7.02283 21.305 6.30566 21.6522 5.61366C21.9994 4.92163 22.6319 4.29858 24.0281 4.29858L34.9734 4.29858C36.374 4.29858 37.0017 4.92164 37.3489 5.61366C37.6961 6.30569 37.705 7.02283 37.705 7.02283L37.705 9.74512L21.296 9.74512Z" fill="#564E69"/>
<path d="M14 52.4515C14 52.4515 14.011 53.6266 14.5857 54.7726C15.1609 55.919 16.2705 57 18.5552 57L40.4448 57C42.725 57 43.839 55.919 44.4142 54.7726C44.9894 53.6267 45 52.4515 45 52.4515L45 16.1112C45 16.1112 44.989 14.936 44.4142 13.7897C43.8391 12.6438 42.7312 11.5628 40.4448 11.5628L18.5552 11.5628C16.2611 11.5628 15.1609 12.6438 14.5857 13.7897C14.011 14.9361 14 16.1112 14 16.1112L14 52.4515ZM16.7316 51.5465L16.7316 45.1877C16.7316 45.1877 16.7243 44.5383 17.0613 43.8673C17.398 43.1964 18.1302 42.4582 19.4723 42.4582L39.5279 42.4582C40.8674 42.4582 41.6022 43.1964 41.9388 43.8673C42.2755 44.5383 42.2612 45.1877 42.2612 45.1877L42.2612 51.5465C42.2612 51.5465 42.2759 52.1903 41.9388 52.8612C41.6022 53.5325 40.8703 54.2704 39.5279 54.2704L19.4723 54.2704C18.1205 54.2704 17.398 53.5325 17.0613 52.8612C16.7243 52.1903 16.7316 51.5465 16.7316 51.5465ZM16.7316 37.9221L16.7316 31.5633C16.7316 31.5633 16.7243 30.9123 17.0613 30.2414C17.398 29.5701 18.1286 28.8322 19.4706 28.8322L39.5273 28.8322C40.8668 28.8322 41.6 29.5701 41.9365 30.2414C42.2732 30.9123 42.2589 31.5633 42.2589 31.5633L42.2589 37.9221C42.2589 37.9221 42.2732 38.5643 41.9365 39.2352C41.5999 39.9066 40.8697 40.6444 39.5273 40.6444L19.4706 40.6444C18.1184 40.6444 17.3979 39.9066 17.0613 39.2353C16.7243 38.5643 16.7316 37.9221 16.7316 37.9221ZM16.7316 24.2926L16.7316 17.9337C16.7316 17.9337 16.7243 17.2827 17.0613 16.6118C17.398 15.9405 18.1302 15.2026 19.4723 15.2026L39.5279 15.2026C40.8674 15.2026 41.6022 15.9405 41.9388 16.6118C42.2755 17.2827 42.2612 17.9337 42.2612 17.9337L42.2612 24.2926C42.2612 24.2926 42.2759 24.9347 41.9388 25.6057C41.6022 26.277 40.8703 27.0148 39.5279 27.0148L19.4723 27.0148C18.1204 27.0148 17.398 26.277 17.0613 25.6057C16.7243 24.9347 16.7316 24.2926 16.7316 24.2926ZM18.5552 51.5465C18.5552 51.5465 18.5714 51.8126 18.6907 52.0503C18.81 52.288 19.0021 52.4515 19.4722 52.4515L39.5279 52.4515C39.9956 52.4515 40.1901 52.288 40.3094 52.0503C40.4287 51.8126 40.4449 51.5465 40.4449 51.5465L40.4449 45.1877C40.4449 45.1877 40.4287 44.9232 40.3094 44.6855C40.1901 44.4478 40.0062 44.2754 39.5279 44.2754L19.4722 44.2754C18.9964 44.2754 18.81 44.4478 18.6907 44.6855C18.5715 44.9232 18.5552 45.1877 18.5552 45.1877L18.5552 51.5465ZM18.5552 37.9221C18.5552 37.9221 18.5714 38.1866 18.6907 38.4243C18.81 38.662 19.0005 38.8271 19.4706 38.8271L39.5273 38.8271C39.995 38.8271 40.1879 38.662 40.3072 38.4243C40.426 38.1866 40.4423 37.9221 40.4423 37.9221L40.4423 31.5633C40.4423 31.5633 40.4265 31.2968 40.3072 31.0595C40.1879 30.8218 40.0056 30.651 39.5273 30.651L19.4706 30.651C18.9944 30.651 18.81 30.8218 18.6907 31.0595C18.5715 31.2968 18.5552 31.5633 18.5552 31.5633L18.5552 37.9221ZM18.5552 24.2926C18.5552 24.2926 18.5714 24.557 18.6907 24.7947C18.81 25.0324 19.0021 25.1975 19.4722 25.1975L39.5279 25.1975C39.9956 25.1975 40.1901 25.0324 40.3094 24.7947C40.4287 24.557 40.4449 24.2926 40.4449 24.2926L40.4449 17.9337C40.4449 17.9337 40.4287 17.6672 40.3094 17.4299C40.1901 17.1922 40.0062 17.0214 39.5279 17.0214L19.4722 17.0214C18.9964 17.0214 18.81 17.1922 18.6907 17.4299C18.5715 17.6672 18.5552 17.9337 18.5552 17.9337L18.5552 24.2926Z" fill="#564E69"/>
<path d="M18.5551 51.5462C18.5551 51.5462 18.5713 51.8123 18.6906 52.05C18.8099 52.2877 19.002 52.4512 19.4721 52.4512L39.5278 52.4512C39.9955 52.4512 40.19 52.2877 40.3093 52.05C40.4285 51.8123 40.4448 51.5462 40.4448 51.5462L40.4448 45.1874C40.4448 45.1874 40.4286 44.9229 40.3093 44.6852C40.19 44.4475 40.006 44.2751 39.5278 44.2751L19.4721 44.2751C18.9963 44.2751 18.8099 44.4475 18.6906 44.6852C18.5713 44.9229 18.5551 45.1874 18.5551 45.1874L18.5551 51.5462Z" fill="#14FF00"/>
<path d="M18.5552 37.9207C18.5552 37.9207 18.5715 38.1868 18.6907 38.4245C18.81 38.6622 19.0021 38.8257 19.4722 38.8257L39.5279 38.8257C39.9956 38.8257 40.1901 38.6622 40.3094 38.4245C40.4287 38.1868 40.445 37.9207 40.445 37.9207L40.4449 31.5619C40.4449 31.5619 40.4287 31.2974 40.3094 31.0597C40.1901 30.822 40.0062 30.6496 39.5279 30.6496L19.4722 30.6496C18.9964 30.6496 18.81 30.822 18.6907 31.0597C18.5715 31.2974 18.5552 31.5619 18.5552 31.5619L18.5552 37.9207Z" fill="#14FF00"/>
<path d="M18.5552 24.2845C18.5552 24.2845 18.5715 24.5506 18.6907 24.7883C18.81 25.026 19.0021 25.1895 19.4722 25.1895L39.5279 25.1895C39.9956 25.1895 40.1901 25.026 40.3094 24.7883C40.4287 24.5506 40.445 24.2845 40.445 24.2845L40.4449 17.9256C40.4449 17.9256 40.4287 17.6612 40.3094 17.4235C40.1901 17.1858 40.0062 17.0134 39.5279 17.0134L19.4722 17.0134C18.9964 17.0134 18.81 17.1858 18.6907 17.4235C18.5715 17.6612 18.5552 17.9256 18.5552 17.9256L18.5552 24.2845Z" fill="#14FF00"/>
</g>
<defs>
<filter id="filter0_d_1791_4977" x="10" y="4.29834" width="39" height="60.7017" filterUnits="userSpaceOnUse" color-interpolation-filters="sRGB">
<feFlood flood-opacity="0" result="BackgroundImageFix"/>
<feColorMatrix in="SourceAlpha" type="matrix" values="0 0 0 0 0 0 0 0 0 0 0 0 0 0 0 0 0 0 127 0" result="hardAlpha"/>
<feOffset dy="4"/>
<feGaussianBlur stdDeviation="2"/>
<feComposite in2="hardAlpha" operator="out"/>
<feColorMatrix type="matrix" values="0 0 0 0 0 0 0 0 0 0 0 0 0 0 0 0 0 0 0.25 0"/>
<feBlend mode="normal" in2="BackgroundImageFix" result="effect1_dropShadow_1791_4977"/>
<feBlend mode="normal" in="SourceGraphic" in2="effect1_dropShadow_1791_4977" result="shape"/>
</filter>
</defs>
</svg>
