<svg width="32" height="32" viewBox="0 0 32 32" fill="none" xmlns="http://www.w3.org/2000/svg">
<mask id="path-1-outside-1_423_256" maskUnits="userSpaceOnUse" x="5.03394" y="5.0061" width="22" height="22" fill="black">
<rect fill="white" x="5.03394" y="5.0061" width="22" height="22"/>
<path d="M16.4415 18.0522C16.4415 18.0522 16.4415 18.0522 16.4415 18.0521C16.4414 17.1713 15.7252 16.455 14.8442 16.455V16.455C14.61 16.455 14.3806 16.2869 14.3806 16.0527V15.2779C14.3806 14.7671 14.7947 14.353 15.3055 14.353H17.0491C17.1663 14.353 17.2733 14.2867 17.3257 14.1819C17.3779 14.0771 17.3665 13.9517 17.2962 13.8579C17.1683 13.6877 17.1006 13.4845 17.1006 13.2707C17.1006 12.7308 17.5395 12.2919 18.0794 12.2919C18.6193 12.2919 19.0582 12.7308 19.0582 13.2707C19.0582 13.4843 18.9905 13.6877 18.8626 13.8579C18.7921 13.9515 18.7809 14.0771 18.8331 14.1819C18.8853 14.2867 18.9925 14.353 19.1096 14.353H21.7988C21.9695 14.353 22.1082 14.2145 22.1082 14.0436L22.1084 7.24257C22.1084 6.56078 21.5537 6.0061 20.8719 6.0061H7.2704C6.58862 6.0061 6.03394 6.56078 6.03394 7.24257V20.8446C6.03394 21.5264 6.58862 22.0811 7.2704 22.0811H14.0714C14.2422 22.0811 14.3808 21.9426 14.3808 21.7717V20.0511C14.3808 19.8169 14.6103 19.6488 14.8445 19.6488V19.6488C15.7251 19.6492 16.4415 18.933 16.4415 18.0522C16.4415 18.0521 16.4415 18.0521 16.4415 18.0522V18.0522ZM14.2097 9.28141C14.2096 9.28141 14.2096 9.28139 14.2096 9.28138C14.3144 9.22917 14.3807 9.122 14.3807 9.00487V7.62439C14.3807 7.0721 14.8285 6.62438 15.3808 6.62439L20.8727 6.62456C21.2138 6.62456 21.4911 6.9019 21.4911 7.243V12.933C21.4911 13.3759 21.1321 13.7349 20.6892 13.7349H20.0795C19.8453 13.7349 19.6772 13.5055 19.6772 13.2713V13.2713C19.6772 12.3904 18.9609 11.674 18.0799 11.674C17.1991 11.674 16.4826 12.3903 16.4826 13.2713V13.2713C16.4826 13.5055 16.3146 13.7349 16.0803 13.7349H15.3056C14.7948 13.7349 14.3807 13.3208 14.3807 12.81V11.0663C14.3807 10.9492 14.3143 10.8422 14.2095 10.7898C14.1047 10.7376 13.9794 10.749 13.8856 10.8193C13.7154 10.9472 13.5122 11.0149 13.2984 11.0149C12.7585 11.0149 12.3196 10.576 12.3196 10.0361C12.3196 9.49615 12.7585 9.05726 13.2984 9.05726C13.512 9.05726 13.7154 9.125 13.8856 9.25291C13.9796 9.32223 14.1049 9.33359 14.2097 9.28143C14.2097 9.28142 14.2097 9.28141 14.2097 9.28141V9.28141ZM6.65234 7.24246C6.65226 7.24252 6.65216 7.24246 6.65216 7.24236C6.65228 6.90137 6.92957 6.62415 7.27059 6.62415H12.9606C13.4035 6.62415 13.7625 6.98319 13.7625 7.42609V8.03572C13.7625 8.26992 13.5331 8.43805 13.2989 8.43805V8.43805C12.418 8.43805 11.7016 9.15431 11.7016 10.0353C11.7016 10.9162 12.4179 11.6326 13.2989 11.6326V11.6326C13.5331 11.6326 13.7625 11.8007 13.7625 12.0349V12.8098C13.7625 13.3206 13.3484 13.7348 12.8375 13.7348H11.0939C10.9768 13.7348 10.8698 13.8011 10.8174 13.9059C10.7652 14.0107 10.7765 14.136 10.8469 14.2299C10.9748 14.4 11.0425 14.6035 11.0425 14.8171C11.0425 15.357 10.6036 15.7959 10.0637 15.7959C9.52377 15.7959 9.08485 15.357 9.08485 14.8171C9.08485 14.6035 9.15259 14.4 9.2805 14.2299C9.35103 14.1362 9.36219 14.0107 9.30999 13.9059C9.25779 13.8011 9.1506 13.7348 9.03344 13.7348H7.6527C7.10042 13.7348 6.65271 13.2871 6.6527 12.7348L6.65253 7.24256C6.65253 7.24246 6.65242 7.24241 6.65234 7.24246V7.24246ZM14.844 19.0309C14.844 19.0309 14.844 19.0309 14.844 19.0309C14.6304 19.0309 14.4271 18.9631 14.2569 18.8352C14.1633 18.7647 14.0378 18.7535 13.933 18.8058C13.8281 18.8579 13.7618 18.9651 13.7618 19.0823V20.4628C13.7618 21.0151 13.3141 21.4628 12.7618 21.4628L7.26987 21.4626C6.92878 21.4626 6.65144 21.1853 6.65144 20.8442V15.1547C6.65144 14.7118 7.01047 14.3528 7.45337 14.3528H8.06301C8.2972 14.3528 8.46533 14.5822 8.46533 14.8164V14.8164C8.46533 15.6972 9.1816 16.4137 10.0626 16.4137C10.9435 16.4137 11.6599 15.6974 11.6599 14.8164V14.8164C11.6599 14.5821 11.828 14.3528 12.0622 14.3528H12.837C13.3478 14.3528 13.7619 14.7668 13.7619 15.2777V17.0213C13.7619 17.1385 13.8282 17.2455 13.933 17.2979C14.0378 17.3501 14.1631 17.3387 14.257 17.2684C14.4271 17.1405 14.6305 17.0727 14.8441 17.0727C15.3841 17.0727 15.823 17.5117 15.823 18.0516C15.823 18.5917 15.3837 19.0308 14.844 19.0308C14.844 19.0308 14.844 19.0309 14.844 19.0309V19.0309ZM25.7924 18.7111C25.7924 18.7111 25.7923 18.7111 25.7923 18.7111L24.233 17.9838C24.0208 17.8848 23.9654 17.6058 24.0645 17.3938V17.3938C24.4367 16.5958 24.0902 15.6435 23.2923 15.2709C22.4943 14.8987 21.542 15.2452 21.1694 16.0431V16.0431C21.0704 16.2555 20.821 16.3924 20.6087 16.2935L18.7881 15.4446C18.6334 15.3723 18.4494 15.4393 18.377 15.5943L17.1182 18.2936C17.0688 18.3995 17.0834 18.5249 17.1563 18.6165C17.2292 18.7082 17.3473 18.751 17.4621 18.7267C17.6707 18.6827 17.8831 18.7074 18.0768 18.7976C18.3139 18.9082 18.4936 19.1041 18.5828 19.3501C18.6723 19.5958 18.6605 19.8617 18.55 20.0987C18.4394 20.3358 18.2435 20.5155 17.9975 20.6047C17.7518 20.6942 17.4858 20.6824 17.2489 20.5719C17.0551 20.4816 16.8999 20.3346 16.7994 20.1465C16.7443 20.0433 16.6355 19.9803 16.5183 19.9831C16.4012 19.9863 16.2958 20.0554 16.2464 20.1614L15.1099 22.5989C15.0376 22.7535 15.1047 22.9376 15.2595 23.0097L21.4235 25.884C21.5925 25.9629 21.7702 25.9999 21.9447 25.9999C22.4105 25.9999 22.8578 25.7353 23.0675 25.2859L25.9417 19.1219C26.0142 18.9673 25.9471 18.7834 25.7925 18.7111C25.7925 18.7111 25.7924 18.7111 25.7924 18.7111V18.7111ZM22.5073 25.0245C22.3632 25.3335 21.9946 25.4676 21.6857 25.3236L16.5282 22.9188C16.127 22.7317 15.9534 22.2548 16.1405 21.8535L16.3982 21.3009C16.4971 21.0887 16.7761 21.0332 16.9882 21.1324V21.1324C17.3749 21.3127 17.8089 21.3314 18.2095 21.1858C18.6106 21.0397 18.9304 20.7465 19.1109 20.36C19.2912 19.9732 19.3099 19.5397 19.1643 19.1386C19.0182 18.7376 18.7249 18.4178 18.3384 18.2373V18.2373C18.1261 18.1383 17.9891 17.8889 18.0881 17.6766L18.4157 16.9742C18.6315 16.5113 19.1816 16.3111 19.6445 16.5269L21.2252 17.2638C21.3312 17.3132 21.4565 17.2987 21.5482 17.2257C21.6398 17.1528 21.6826 17.0347 21.6583 16.9199C21.6143 16.7113 21.639 16.4989 21.7293 16.3053C21.8398 16.0682 22.0357 15.8884 22.2817 15.7992C22.5274 15.7097 22.7934 15.7215 23.0303 15.8321C23.2674 15.9426 23.4471 16.1385 23.5364 16.3845C23.6258 16.6302 23.6141 16.8962 23.5035 17.1331C23.4132 17.327 23.2662 17.4822 23.0781 17.5826C22.9749 17.6378 22.9116 17.7466 22.9147 17.8637C22.9179 17.9809 22.9871 18.0863 23.0931 18.1357L24.3441 18.719C24.8447 18.9524 25.0612 19.5474 24.8278 20.0479L22.5073 25.0245Z"/>
</mask>
<path d="M16.4415 18.0522C16.4415 18.0522 16.4415 18.0522 16.4415 18.0521C16.4414 17.1713 15.7252 16.455 14.8442 16.455V16.455C14.61 16.455 14.3806 16.2869 14.3806 16.0527V15.2779C14.3806 14.7671 14.7947 14.353 15.3055 14.353H17.0491C17.1663 14.353 17.2733 14.2867 17.3257 14.1819C17.3779 14.0771 17.3665 13.9517 17.2962 13.8579C17.1683 13.6877 17.1006 13.4845 17.1006 13.2707C17.1006 12.7308 17.5395 12.2919 18.0794 12.2919C18.6193 12.2919 19.0582 12.7308 19.0582 13.2707C19.0582 13.4843 18.9905 13.6877 18.8626 13.8579C18.7921 13.9515 18.7809 14.0771 18.8331 14.1819C18.8853 14.2867 18.9925 14.353 19.1096 14.353H21.7988C21.9695 14.353 22.1082 14.2145 22.1082 14.0436L22.1084 7.24257C22.1084 6.56078 21.5537 6.0061 20.8719 6.0061H7.2704C6.58862 6.0061 6.03394 6.56078 6.03394 7.24257V20.8446C6.03394 21.5264 6.58862 22.0811 7.2704 22.0811H14.0714C14.2422 22.0811 14.3808 21.9426 14.3808 21.7717V20.0511C14.3808 19.8169 14.6103 19.6488 14.8445 19.6488V19.6488C15.7251 19.6492 16.4415 18.933 16.4415 18.0522C16.4415 18.0521 16.4415 18.0521 16.4415 18.0522V18.0522ZM14.2097 9.28141C14.2096 9.28141 14.2096 9.28139 14.2096 9.28138C14.3144 9.22917 14.3807 9.122 14.3807 9.00487V7.62439C14.3807 7.0721 14.8285 6.62438 15.3808 6.62439L20.8727 6.62456C21.2138 6.62456 21.4911 6.9019 21.4911 7.243V12.933C21.4911 13.3759 21.1321 13.7349 20.6892 13.7349H20.0795C19.8453 13.7349 19.6772 13.5055 19.6772 13.2713V13.2713C19.6772 12.3904 18.9609 11.674 18.0799 11.674C17.1991 11.674 16.4826 12.3903 16.4826 13.2713V13.2713C16.4826 13.5055 16.3146 13.7349 16.0803 13.7349H15.3056C14.7948 13.7349 14.3807 13.3208 14.3807 12.81V11.0663C14.3807 10.9492 14.3143 10.8422 14.2095 10.7898C14.1047 10.7376 13.9794 10.749 13.8856 10.8193C13.7154 10.9472 13.5122 11.0149 13.2984 11.0149C12.7585 11.0149 12.3196 10.576 12.3196 10.0361C12.3196 9.49615 12.7585 9.05726 13.2984 9.05726C13.512 9.05726 13.7154 9.125 13.8856 9.25291C13.9796 9.32223 14.1049 9.33359 14.2097 9.28143C14.2097 9.28142 14.2097 9.28141 14.2097 9.28141V9.28141ZM6.65234 7.24246C6.65226 7.24252 6.65216 7.24246 6.65216 7.24236C6.65228 6.90137 6.92957 6.62415 7.27059 6.62415H12.9606C13.4035 6.62415 13.7625 6.98319 13.7625 7.42609V8.03572C13.7625 8.26992 13.5331 8.43805 13.2989 8.43805V8.43805C12.418 8.43805 11.7016 9.15431 11.7016 10.0353C11.7016 10.9162 12.4179 11.6326 13.2989 11.6326V11.6326C13.5331 11.6326 13.7625 11.8007 13.7625 12.0349V12.8098C13.7625 13.3206 13.3484 13.7348 12.8375 13.7348H11.0939C10.9768 13.7348 10.8698 13.8011 10.8174 13.9059C10.7652 14.0107 10.7765 14.136 10.8469 14.2299C10.9748 14.4 11.0425 14.6035 11.0425 14.8171C11.0425 15.357 10.6036 15.7959 10.0637 15.7959C9.52377 15.7959 9.08485 15.357 9.08485 14.8171C9.08485 14.6035 9.15259 14.4 9.2805 14.2299C9.35103 14.1362 9.36219 14.0107 9.30999 13.9059C9.25779 13.8011 9.1506 13.7348 9.03344 13.7348H7.6527C7.10042 13.7348 6.65271 13.2871 6.6527 12.7348L6.65253 7.24256C6.65253 7.24246 6.65242 7.24241 6.65234 7.24246V7.24246ZM14.844 19.0309C14.844 19.0309 14.844 19.0309 14.844 19.0309C14.6304 19.0309 14.4271 18.9631 14.2569 18.8352C14.1633 18.7647 14.0378 18.7535 13.933 18.8058C13.8281 18.8579 13.7618 18.9651 13.7618 19.0823V20.4628C13.7618 21.0151 13.3141 21.4628 12.7618 21.4628L7.26987 21.4626C6.92878 21.4626 6.65144 21.1853 6.65144 20.8442V15.1547C6.65144 14.7118 7.01047 14.3528 7.45337 14.3528H8.06301C8.2972 14.3528 8.46533 14.5822 8.46533 14.8164V14.8164C8.46533 15.6972 9.1816 16.4137 10.0626 16.4137C10.9435 16.4137 11.6599 15.6974 11.6599 14.8164V14.8164C11.6599 14.5821 11.828 14.3528 12.0622 14.3528H12.837C13.3478 14.3528 13.7619 14.7668 13.7619 15.2777V17.0213C13.7619 17.1385 13.8282 17.2455 13.933 17.2979C14.0378 17.3501 14.1631 17.3387 14.257 17.2684C14.4271 17.1405 14.6305 17.0727 14.8441 17.0727C15.3841 17.0727 15.823 17.5117 15.823 18.0516C15.823 18.5917 15.3837 19.0308 14.844 19.0308C14.844 19.0308 14.844 19.0309 14.844 19.0309V19.0309ZM25.7924 18.7111C25.7924 18.7111 25.7923 18.7111 25.7923 18.7111L24.233 17.9838C24.0208 17.8848 23.9654 17.6058 24.0645 17.3938V17.3938C24.4367 16.5958 24.0902 15.6435 23.2923 15.2709C22.4943 14.8987 21.542 15.2452 21.1694 16.0431V16.0431C21.0704 16.2555 20.821 16.3924 20.6087 16.2935L18.7881 15.4446C18.6334 15.3723 18.4494 15.4393 18.377 15.5943L17.1182 18.2936C17.0688 18.3995 17.0834 18.5249 17.1563 18.6165C17.2292 18.7082 17.3473 18.751 17.4621 18.7267C17.6707 18.6827 17.8831 18.7074 18.0768 18.7976C18.3139 18.9082 18.4936 19.1041 18.5828 19.3501C18.6723 19.5958 18.6605 19.8617 18.55 20.0987C18.4394 20.3358 18.2435 20.5155 17.9975 20.6047C17.7518 20.6942 17.4858 20.6824 17.2489 20.5719C17.0551 20.4816 16.8999 20.3346 16.7994 20.1465C16.7443 20.0433 16.6355 19.9803 16.5183 19.9831C16.4012 19.9863 16.2958 20.0554 16.2464 20.1614L15.1099 22.5989C15.0376 22.7535 15.1047 22.9376 15.2595 23.0097L21.4235 25.884C21.5925 25.9629 21.7702 25.9999 21.9447 25.9999C22.4105 25.9999 22.8578 25.7353 23.0675 25.2859L25.9417 19.1219C26.0142 18.9673 25.9471 18.7834 25.7925 18.7111C25.7925 18.7111 25.7924 18.7111 25.7924 18.7111V18.7111ZM22.5073 25.0245C22.3632 25.3335 21.9946 25.4676 21.6857 25.3236L16.5282 22.9188C16.127 22.7317 15.9534 22.2548 16.1405 21.8535L16.3982 21.3009C16.4971 21.0887 16.7761 21.0332 16.9882 21.1324V21.1324C17.3749 21.3127 17.8089 21.3314 18.2095 21.1858C18.6106 21.0397 18.9304 20.7465 19.1109 20.36C19.2912 19.9732 19.3099 19.5397 19.1643 19.1386C19.0182 18.7376 18.7249 18.4178 18.3384 18.2373V18.2373C18.1261 18.1383 17.9891 17.8889 18.0881 17.6766L18.4157 16.9742C18.6315 16.5113 19.1816 16.3111 19.6445 16.5269L21.2252 17.2638C21.3312 17.3132 21.4565 17.2987 21.5482 17.2257C21.6398 17.1528 21.6826 17.0347 21.6583 16.9199C21.6143 16.7113 21.639 16.4989 21.7293 16.3053C21.8398 16.0682 22.0357 15.8884 22.2817 15.7992C22.5274 15.7097 22.7934 15.7215 23.0303 15.8321C23.2674 15.9426 23.4471 16.1385 23.5364 16.3845C23.6258 16.6302 23.6141 16.8962 23.5035 17.1331C23.4132 17.327 23.2662 17.4822 23.0781 17.5826C22.9749 17.6378 22.9116 17.7466 22.9147 17.8637C22.9179 17.9809 22.9871 18.0863 23.0931 18.1357L24.3441 18.719C24.8447 18.9524 25.0612 19.5474 24.8278 20.0479L22.5073 25.0245Z" fill="white"/>
<path d="M16.4415 18.0522C16.4415 18.0522 16.4415 18.0522 16.4415 18.0521C16.4414 17.1713 15.7252 16.455 14.8442 16.455V16.455C14.61 16.455 14.3806 16.2869 14.3806 16.0527V15.2779C14.3806 14.7671 14.7947 14.353 15.3055 14.353H17.0491C17.1663 14.353 17.2733 14.2867 17.3257 14.1819C17.3779 14.0771 17.3665 13.9517 17.2962 13.8579C17.1683 13.6877 17.1006 13.4845 17.1006 13.2707C17.1006 12.7308 17.5395 12.2919 18.0794 12.2919C18.6193 12.2919 19.0582 12.7308 19.0582 13.2707C19.0582 13.4843 18.9905 13.6877 18.8626 13.8579C18.7921 13.9515 18.7809 14.0771 18.8331 14.1819C18.8853 14.2867 18.9925 14.353 19.1096 14.353H21.7988C21.9695 14.353 22.1082 14.2145 22.1082 14.0436L22.1084 7.24257C22.1084 6.56078 21.5537 6.0061 20.8719 6.0061H7.2704C6.58862 6.0061 6.03394 6.56078 6.03394 7.24257V20.8446C6.03394 21.5264 6.58862 22.0811 7.2704 22.0811H14.0714C14.2422 22.0811 14.3808 21.9426 14.3808 21.7717V20.0511C14.3808 19.8169 14.6103 19.6488 14.8445 19.6488V19.6488C15.7251 19.6492 16.4415 18.933 16.4415 18.0522C16.4415 18.0521 16.4415 18.0521 16.4415 18.0522V18.0522ZM14.2097 9.28141C14.2096 9.28141 14.2096 9.28139 14.2096 9.28138C14.3144 9.22917 14.3807 9.122 14.3807 9.00487V7.62439C14.3807 7.0721 14.8285 6.62438 15.3808 6.62439L20.8727 6.62456C21.2138 6.62456 21.4911 6.9019 21.4911 7.243V12.933C21.4911 13.3759 21.1321 13.7349 20.6892 13.7349H20.0795C19.8453 13.7349 19.6772 13.5055 19.6772 13.2713V13.2713C19.6772 12.3904 18.9609 11.674 18.0799 11.674C17.1991 11.674 16.4826 12.3903 16.4826 13.2713V13.2713C16.4826 13.5055 16.3146 13.7349 16.0803 13.7349H15.3056C14.7948 13.7349 14.3807 13.3208 14.3807 12.81V11.0663C14.3807 10.9492 14.3143 10.8422 14.2095 10.7898C14.1047 10.7376 13.9794 10.749 13.8856 10.8193C13.7154 10.9472 13.5122 11.0149 13.2984 11.0149C12.7585 11.0149 12.3196 10.576 12.3196 10.0361C12.3196 9.49615 12.7585 9.05726 13.2984 9.05726C13.512 9.05726 13.7154 9.125 13.8856 9.25291C13.9796 9.32223 14.1049 9.33359 14.2097 9.28143C14.2097 9.28142 14.2097 9.28141 14.2097 9.28141V9.28141ZM6.65234 7.24246C6.65226 7.24252 6.65216 7.24246 6.65216 7.24236C6.65228 6.90137 6.92957 6.62415 7.27059 6.62415H12.9606C13.4035 6.62415 13.7625 6.98319 13.7625 7.42609V8.03572C13.7625 8.26992 13.5331 8.43805 13.2989 8.43805V8.43805C12.418 8.43805 11.7016 9.15431 11.7016 10.0353C11.7016 10.9162 12.4179 11.6326 13.2989 11.6326V11.6326C13.5331 11.6326 13.7625 11.8007 13.7625 12.0349V12.8098C13.7625 13.3206 13.3484 13.7348 12.8375 13.7348H11.0939C10.9768 13.7348 10.8698 13.8011 10.8174 13.9059C10.7652 14.0107 10.7765 14.136 10.8469 14.2299C10.9748 14.4 11.0425 14.6035 11.0425 14.8171C11.0425 15.357 10.6036 15.7959 10.0637 15.7959C9.52377 15.7959 9.08485 15.357 9.08485 14.8171C9.08485 14.6035 9.15259 14.4 9.2805 14.2299C9.35103 14.1362 9.36219 14.0107 9.30999 13.9059C9.25779 13.8011 9.1506 13.7348 9.03344 13.7348H7.6527C7.10042 13.7348 6.65271 13.2871 6.6527 12.7348L6.65253 7.24256C6.65253 7.24246 6.65242 7.24241 6.65234 7.24246V7.24246ZM14.844 19.0309C14.844 19.0309 14.844 19.0309 14.844 19.0309C14.6304 19.0309 14.4271 18.9631 14.2569 18.8352C14.1633 18.7647 14.0378 18.7535 13.933 18.8058C13.8281 18.8579 13.7618 18.9651 13.7618 19.0823V20.4628C13.7618 21.0151 13.3141 21.4628 12.7618 21.4628L7.26987 21.4626C6.92878 21.4626 6.65144 21.1853 6.65144 20.8442V15.1547C6.65144 14.7118 7.01047 14.3528 7.45337 14.3528H8.06301C8.2972 14.3528 8.46533 14.5822 8.46533 14.8164V14.8164C8.46533 15.6972 9.1816 16.4137 10.0626 16.4137C10.9435 16.4137 11.6599 15.6974 11.6599 14.8164V14.8164C11.6599 14.5821 11.828 14.3528 12.0622 14.3528H12.837C13.3478 14.3528 13.7619 14.7668 13.7619 15.2777V17.0213C13.7619 17.1385 13.8282 17.2455 13.933 17.2979C14.0378 17.3501 14.1631 17.3387 14.257 17.2684C14.4271 17.1405 14.6305 17.0727 14.8441 17.0727C15.3841 17.0727 15.823 17.5117 15.823 18.0516C15.823 18.5917 15.3837 19.0308 14.844 19.0308C14.844 19.0308 14.844 19.0309 14.844 19.0309V19.0309ZM25.7924 18.7111C25.7924 18.7111 25.7923 18.7111 25.7923 18.7111L24.233 17.9838C24.0208 17.8848 23.9654 17.6058 24.0645 17.3938V17.3938C24.4367 16.5958 24.0902 15.6435 23.2923 15.2709C22.4943 14.8987 21.542 15.2452 21.1694 16.0431V16.0431C21.0704 16.2555 20.821 16.3924 20.6087 16.2935L18.7881 15.4446C18.6334 15.3723 18.4494 15.4393 18.377 15.5943L17.1182 18.2936C17.0688 18.3995 17.0834 18.5249 17.1563 18.6165C17.2292 18.7082 17.3473 18.751 17.4621 18.7267C17.6707 18.6827 17.8831 18.7074 18.0768 18.7976C18.3139 18.9082 18.4936 19.1041 18.5828 19.3501C18.6723 19.5958 18.6605 19.8617 18.55 20.0987C18.4394 20.3358 18.2435 20.5155 17.9975 20.6047C17.7518 20.6942 17.4858 20.6824 17.2489 20.5719C17.0551 20.4816 16.8999 20.3346 16.7994 20.1465C16.7443 20.0433 16.6355 19.9803 16.5183 19.9831C16.4012 19.9863 16.2958 20.0554 16.2464 20.1614L15.1099 22.5989C15.0376 22.7535 15.1047 22.9376 15.2595 23.0097L21.4235 25.884C21.5925 25.9629 21.7702 25.9999 21.9447 25.9999C22.4105 25.9999 22.8578 25.7353 23.0675 25.2859L25.9417 19.1219C26.0142 18.9673 25.9471 18.7834 25.7925 18.7111C25.7925 18.7111 25.7924 18.7111 25.7924 18.7111V18.7111ZM22.5073 25.0245C22.3632 25.3335 21.9946 25.4676 21.6857 25.3236L16.5282 22.9188C16.127 22.7317 15.9534 22.2548 16.1405 21.8535L16.3982 21.3009C16.4971 21.0887 16.7761 21.0332 16.9882 21.1324V21.1324C17.3749 21.3127 17.8089 21.3314 18.2095 21.1858C18.6106 21.0397 18.9304 20.7465 19.1109 20.36C19.2912 19.9732 19.3099 19.5397 19.1643 19.1386C19.0182 18.7376 18.7249 18.4178 18.3384 18.2373V18.2373C18.1261 18.1383 17.9891 17.8889 18.0881 17.6766L18.4157 16.9742C18.6315 16.5113 19.1816 16.3111 19.6445 16.5269L21.2252 17.2638C21.3312 17.3132 21.4565 17.2987 21.5482 17.2257C21.6398 17.1528 21.6826 17.0347 21.6583 16.9199C21.6143 16.7113 21.639 16.4989 21.7293 16.3053C21.8398 16.0682 22.0357 15.8884 22.2817 15.7992C22.5274 15.7097 22.7934 15.7215 23.0303 15.8321C23.2674 15.9426 23.4471 16.1385 23.5364 16.3845C23.6258 16.6302 23.6141 16.8962 23.5035 17.1331C23.4132 17.327 23.2662 17.4822 23.0781 17.5826C22.9749 17.6378 22.9116 17.7466 22.9147 17.8637C22.9179 17.9809 22.9871 18.0863 23.0931 18.1357L24.3441 18.719C24.8447 18.9524 25.0612 19.5474 24.8278 20.0479L22.5073 25.0245Z" stroke="white" stroke-width="0.2" mask="url(#path-1-outside-1_423_256)"/>
</svg>
