<svg width="32" height="32" viewBox="0 0 32 32" fill="none" xmlns="http://www.w3.org/2000/svg">
<path d="M14.2901 25.8258H14.1701C13.4714 25.6816 12.7925 25.454 12.1481 25.1478C12.0041 25.0794 11.8932 24.9566 11.8397 24.8064C11.7863 24.6561 11.7947 24.4909 11.8631 24.3468C11.9315 24.2028 12.0544 24.0919 12.2046 24.0384C12.3548 23.985 12.5201 23.9934 12.6641 24.0618C13.2206 24.3296 13.8066 24.531 14.4101 24.6618C14.4889 24.6697 14.5654 24.693 14.6351 24.7305C14.7049 24.7679 14.7667 24.8187 14.8168 24.88C14.8669 24.9413 14.9045 25.0118 14.9274 25.0877C14.9503 25.1635 14.958 25.243 14.9501 25.3218C14.9422 25.4006 14.9189 25.4771 14.8815 25.5469C14.844 25.6167 14.7932 25.6784 14.7319 25.7285C14.6707 25.7787 14.6001 25.8163 14.5243 25.8391C14.4485 25.862 14.3689 25.8697 14.2901 25.8618V25.8258Z" fill="white"/>
<path d="M16 26C15.8409 26 15.6883 25.9368 15.5757 25.8243C15.4632 25.7117 15.4 25.5591 15.4 25.4C15.4 25.2409 15.4632 25.0883 15.5757 24.9757C15.6883 24.8632 15.8409 24.8 16 24.8C17.5427 24.8 19.0507 24.3425 20.3334 23.4855C21.6161 22.6284 22.6159 21.4102 23.2062 19.9849C23.7966 18.5597 23.9511 16.9913 23.6501 15.4783C23.3491 13.9652 22.6063 12.5754 21.5154 11.4846C20.4246 10.3937 19.0347 9.65084 17.5217 9.34988C16.0086 9.04891 14.4403 9.20338 13.0151 9.79374C11.5898 10.3841 10.3716 11.3839 9.51454 12.6666C8.65746 13.9493 8.2 15.4573 8.2 17C8.19987 17.3612 8.22393 17.722 8.272 18.08C8.29425 18.2375 8.25303 18.3975 8.15739 18.5246C8.06175 18.6517 7.91953 18.7357 7.762 18.758C7.60446 18.7803 7.44454 18.739 7.3174 18.6434C7.19025 18.5477 7.1063 18.4055 7.084 18.248C7.02875 17.8343 7.00069 17.4174 7 17C7 15.22 7.52784 13.4799 8.51677 11.9999C9.5057 10.5198 10.9113 9.36628 12.5558 8.68509C14.2004 8.0039 16.01 7.82567 17.7558 8.17294C19.5016 8.5202 21.1053 9.37737 22.3639 10.636C23.6226 11.8947 24.4798 13.4984 24.8271 15.2442C25.1743 16.99 24.9961 18.7996 24.3149 20.4441C23.6337 22.0887 22.4802 23.4943 21.0001 24.4832C19.5201 25.4722 17.78 26 16 26Z" fill="white"/>
<path d="M9.99992 23.48C9.92053 23.4797 9.842 23.4636 9.76888 23.4327C9.69575 23.4018 9.62948 23.3567 9.57392 23.3C8.86565 22.5804 8.28353 21.7468 7.85192 20.834C7.81751 20.7624 7.79766 20.6847 7.79354 20.6053C7.78941 20.526 7.80108 20.4466 7.82787 20.3718C7.85466 20.297 7.89604 20.2283 7.94961 20.1696C8.00318 20.1109 8.06786 20.0635 8.13992 20.03C8.28393 19.9624 8.4489 19.9548 8.59855 20.0088C8.74819 20.0628 8.87026 20.174 8.93792 20.318C9.31156 21.1097 9.81444 21.8336 10.4259 22.46C10.5377 22.5724 10.6004 22.7245 10.6004 22.883C10.6004 23.0415 10.5377 23.1936 10.4259 23.306C10.3699 23.3616 10.3034 23.4056 10.2303 23.4355C10.1572 23.4653 10.0789 23.4805 9.99992 23.48Z" fill="white"/>
<path fill-rule="evenodd" clip-rule="evenodd" d="M23.2 17C23.2 20.9765 19.9765 24.2 16 24.2C12.0236 24.2 8.80005 20.9765 8.80005 17C8.80005 13.0236 12.0236 9.80005 16 9.80005C19.9765 9.80005 23.2 13.0236 23.2 17ZM16 23.6C19.6451 23.6 22.6 20.6451 22.6 17C22.6 13.355 19.6451 10.4 16 10.4C12.355 10.4 9.40005 13.355 9.40005 17C9.40005 20.6451 12.355 23.6 16 23.6Z" fill="white"/>
<path d="M17.8793 17.7402L19.208 16.6739C19.5278 16.4221 19.3572 15.889 18.9593 15.8816L17.3109 15.8372C17.1546 15.8298 17.0196 15.7335 16.9699 15.578L16.4157 13.9193C16.2807 13.5269 15.7478 13.5269 15.6128 13.9193L15.0657 15.5336C15.0159 15.6817 14.8809 15.7853 14.7246 15.7927L13.0407 15.8446C12.6428 15.8594 12.4722 16.3851 12.792 16.6369L14.0993 17.681C14.2201 17.7772 14.2699 17.9475 14.2272 18.0956L13.7512 19.7765C13.6375 20.1764 14.0709 20.5022 14.3978 20.2652L15.7549 19.2952C15.8828 19.2063 16.0462 19.2063 16.1741 19.2952L17.5667 20.2948C17.8936 20.5318 18.327 20.206 18.2133 19.8061L17.7443 18.1623C17.7088 17.9994 17.7586 17.8365 17.8793 17.7402Z" fill="white"/>
</svg>
