<svg width="32" height="32" viewBox="0 0 32 32" fill="none" xmlns="http://www.w3.org/2000/svg">
<path d="M14.0001 9.597C13.1538 9.87359 12.3647 10.2608 11.6772 10.7665L9.75274 9.00012L8.49569 10.1539L10.4202 11.9203C9.50017 12.976 8.89003 14.2685 8.71888 15.6844H6.00012V17.3159H8.71888C8.89002 18.7318 9.50012 20.0239 10.4202 21.0799L8.49569 22.8463L9.75274 24.0001L11.6772 22.2337C12.3647 22.7394 13.1538 23.1267 14.0001 23.4024V9.597Z" fill="white"/>
<path d="M27.0001 17.3749V15.6251H24.1768C23.999 14.1066 23.3662 12.7209 22.4108 11.5876L24.4085 9.69398L23.1031 8.45658L21.1054 10.3502C19.9103 9.44461 18.448 8.84475 16.846 8.67628V6H15.0001V27H16.846V24.3237C18.448 24.1553 19.9099 23.5554 21.1054 22.6498L23.1031 24.5434L24.4085 23.306L22.4108 21.4124C23.3662 20.2795 23.999 18.8934 24.1768 17.3749H27.0001Z" fill="white"/>
</svg>
