<svg width="28" height="28" viewBox="0 0 28 28" fill="none" xmlns="http://www.w3.org/2000/svg">
<path fill-rule="evenodd" clip-rule="evenodd" d="M14 5.38477C9.24491 5.38477 5.3846 9.24507 5.3846 14.0001C5.3846 18.7552 9.24491 22.6155 14 22.6155C18.7551 22.6155 22.6154 18.7552 22.6154 14.0001C22.6154 9.24507 18.7551 5.38477 14 5.38477ZM14 7.53861C17.5661 7.53861 20.4615 10.4341 20.4615 14.0001C20.4615 17.5662 17.5661 20.4617 14 20.4617C10.4339 20.4617 7.53844 17.5662 7.53844 14.0001C7.53844 10.4341 10.4339 7.53861 14 7.53861Z" fill="white"/>
<path fill-rule="evenodd" clip-rule="evenodd" d="M13.8885 18.8881C13.8899 18.8881 14.9651 18.679 14.9656 17.599C14.9666 16.3636 14.9654 10.1879 14.9654 10.1879C14.9654 9.59316 14.4832 9.1112 13.8885 9.1112C11.1904 9.1112 8.99998 11.3016 8.99998 13.9997C8.99998 16.6978 11.1904 18.8882 13.8885 18.8882L13.8885 18.8881ZM12.8118 16.5136C11.8373 16.0956 11.1539 15.1268 11.1539 13.9996C11.1539 12.8724 11.8373 11.9037 12.812 11.4852L12.8118 16.5136Z" fill="white"/>
<path fill-rule="evenodd" clip-rule="evenodd" d="M24.7692 15.0767H26.9231C27.5176 15.0767 28 14.5942 28 13.9998C28 13.4053 27.5176 12.9229 26.9231 12.9229H24.7692C24.1748 12.9229 23.6923 13.4053 23.6923 13.9998C23.6923 14.5942 24.1748 15.0767 24.7692 15.0767Z" fill="white"/>
<path fill-rule="evenodd" clip-rule="evenodd" d="M1.07692 15.0767H3.23077C3.82524 15.0767 4.30769 14.5942 4.30769 13.9998C4.30769 13.4053 3.82524 12.9229 3.23077 12.9229H1.07692C0.482449 12.9229 0 13.4053 0 13.9998C0 14.5942 0.482449 15.0767 1.07692 15.0767Z" fill="white"/>
<path fill-rule="evenodd" clip-rule="evenodd" d="M15.0769 3.23077V1.07692C15.0769 0.482449 14.5945 0 14 0C13.4055 0 12.9231 0.482449 12.9231 1.07692V3.23077C12.9231 3.82524 13.4055 4.30769 14 4.30769C14.5945 4.30769 15.0769 3.82524 15.0769 3.23077Z" fill="white"/>
<path fill-rule="evenodd" clip-rule="evenodd" d="M15.0769 26.9232V24.7693C15.0769 24.1748 14.5945 23.6924 14 23.6924C13.4055 23.6924 12.9231 24.1748 12.9231 24.7693V26.9232C12.9231 27.5176 13.4055 28.0001 14 28.0001C14.5945 28.0001 15.0769 27.5176 15.0769 26.9232Z" fill="white"/>
<path fill-rule="evenodd" clip-rule="evenodd" d="M20.8535 22.3766L22.3768 23.8994C22.797 24.3198 23.4797 24.3198 23.8997 23.8994C24.3201 23.4792 24.3201 22.7965 23.8997 22.3766L22.3768 20.8532C21.9564 20.433 21.2739 20.433 20.8535 20.8532C20.4333 21.2737 20.4333 21.9561 20.8535 22.3766Z" fill="white"/>
<path fill-rule="evenodd" clip-rule="evenodd" d="M4.10031 5.62331L5.62314 7.14663C6.04357 7.56682 6.72603 7.56682 7.14647 7.14663C7.56666 6.7262 7.56666 6.04374 7.14647 5.62331L5.62314 4.10048C5.20295 3.68005 4.52025 3.68005 4.10031 4.10048C3.67988 4.52067 3.67988 5.20337 4.10031 5.62331Z" fill="white"/>
<path fill-rule="evenodd" clip-rule="evenodd" d="M22.3766 7.14663L23.8994 5.62331C24.3198 5.20312 24.3198 4.52042 23.8994 4.10048C23.4792 3.68005 22.7965 3.68005 22.3766 4.10048L20.8533 5.62331C20.4331 6.04374 20.4331 6.7262 20.8533 7.14663C21.2737 7.56682 21.9562 7.56682 22.3766 7.14663Z" fill="white"/>
<path fill-rule="evenodd" clip-rule="evenodd" d="M5.62339 23.8999L7.14671 22.377C7.5669 21.9566 7.5669 21.2741 7.14671 20.8537C6.72628 20.4335 6.04382 20.4335 5.62339 20.8537L4.10056 22.377C3.68012 22.7972 3.68012 23.4799 4.10056 23.8999C4.52075 24.3203 5.20345 24.3203 5.62339 23.8999Z" fill="white"/>
</svg>
