<svg width="28" height="19" viewBox="0 0 28 19" fill="none" xmlns="http://www.w3.org/2000/svg">
    <defs>
        <linearGradient id="paint0_linear_669_306" x1="14" y1="0" x2="14" y2="19" gradientUnits="userSpaceOnUse">
            <stop stop-color="#0EC5FA"/>
            <stop offset="1" stop-color="#1F78F2"/>
        </linearGradient>
    </defs>
<rect width="28" height="19" rx="9.5" fill="url(#paint0_linear_669_306)"/>
<path d="M11.014 13.56L11.0156 13.5606L10.4361 14.6023C10.2245 14.9826 9.75597 15.1129 9.38956 14.8933C9.02317 14.6738 8.89762 14.1875 9.10916 13.8073L9.53609 13.0398L9.57706 12.9662C9.65023 12.857 9.8308 12.6686 10.192 12.704C10.192 12.704 11.042 12.7998 11.1034 13.2583C11.1035 13.2583 11.1119 13.4091 11.014 13.56ZM19.2339 10.8992H17.4267C17.3036 10.8906 17.2499 10.845 17.2288 10.8185L17.2274 10.8161L15.2928 7.33846L15.2903 7.3402L15.1743 7.16754C14.9842 6.86577 14.6822 7.63762 14.6822 7.63762C14.3217 8.49767 14.7334 9.47552 14.8769 9.77106L17.5639 14.6013C17.7755 14.9815 18.244 15.1118 18.6104 14.8923C18.9768 14.6727 19.1024 14.1865 18.8908 13.8062L18.2189 12.5984C18.2059 12.5691 18.1832 12.4896 18.321 12.4893H19.2339C19.657 12.4893 20 12.1333 20 11.6942C20 11.2551 19.657 10.8992 19.2339 10.8992ZM15.7237 11.98C15.7237 11.98 15.8202 12.4893 15.4469 12.4893H15.0737V12.4893H8.76608C8.34299 12.4893 8 12.1333 8 11.6942C8 11.2551 8.34299 10.8992 8.76608 10.8992H10.4836C10.7609 10.8825 10.8267 10.7164 10.8267 10.7164L10.8282 10.7172L13.0702 6.68691L13.0695 6.68677C13.1104 6.60892 13.0764 6.53536 13.0704 6.52371L12.33 5.19275C12.1185 4.81247 12.244 4.3262 12.6104 4.10666C12.9768 3.8871 13.4454 4.01739 13.6569 4.39767L14.0003 5.01497L14.3431 4.39877C14.5546 4.01849 15.0232 3.88819 15.3896 4.10775C15.756 4.32731 15.8815 4.81358 15.67 5.19384L12.5502 10.802C12.5365 10.8361 12.5324 10.8897 12.6339 10.8992H14.4987L14.4991 10.918C14.4991 10.918 15.5769 10.9354 15.7237 11.98Z" fill="white"/>

</svg>
