<svg width="32" height="32" viewBox="0 0 32 32" fill="none" xmlns="http://www.w3.org/2000/svg">
<path d="M18.7271 19.7677L17.9012 18.9433V20.592L18.7271 19.7677Z" fill="white"/>
<path d="M17.9012 14.7846V16.4333L18.7271 15.609L17.9012 14.7846Z" fill="white"/>
<path fill-rule="evenodd" clip-rule="evenodd" d="M16.7315 6.82999L26.5817 16.7526L26.5816 16.7526C27.1442 17.3106 27.1348 18.2157 26.5816 18.769L18.827 26.5813C18.2972 27.1159 17.4487 27.1394 16.8908 26.647L16.7454 26.5016L7.07361 16.7102L6.81575 16.457C6.53915 16.1241 6.37506 15.7208 6.32818 15.3128V15.2143L6.01406 10.6518L6 10.4548V10.4501C6 9.89675 6.19221 9.33875 6.61416 8.91671L8.92075 6.61429C9.31926 6.21102 9.83496 6.00938 10.36 6L10.5663 6.00938L15.2406 6.18288C15.8032 6.19694 16.2533 6.38921 16.6424 6.75966H16.6612L16.7315 6.82999ZM9.00055 11.2474C9.00055 12.49 10.0085 13.4982 11.2509 13.4982C12.4933 13.4982 13.5013 12.49 13.5013 11.2474C13.5013 10.0048 12.4933 8.99655 11.2509 8.99655C10.0085 8.99655 9.00055 10.0048 9.00055 11.2474ZM17.7487 13.1621C17.5997 13.0134 17.3757 12.9689 17.1811 13.0494C16.9865 13.1298 16.8596 13.3194 16.8596 13.5296V16.4333L15.6655 15.2414C15.4621 15.0384 15.1323 15.0384 14.9289 15.2414C14.7256 15.4444 14.7256 15.7736 14.9289 15.9766L16.6439 17.6883L14.9289 19.4001C14.7256 19.6031 14.7256 19.9322 14.9289 20.1353C15.1323 20.3383 15.4621 20.3383 15.6655 20.1353L16.8596 18.9433V21.847C16.8596 22.0573 16.9865 22.2468 17.1811 22.3273C17.3757 22.4078 17.5997 22.3633 17.7487 22.2146L19.8319 20.1353C20.0352 19.9322 20.0352 19.6031 19.8319 19.4001L18.1169 17.6883L19.8319 15.9766C20.0352 15.7736 20.0352 15.4444 19.8319 15.2414L17.7487 13.1621Z" fill="white"/>
</svg>
