<svg width="32" height="32" viewBox="0 0 32 32" fill="none" xmlns="http://www.w3.org/2000/svg">
<path d="M5.00098 17.8511C5.00098 19.7773 6.72397 22 8.85067 22L23.1513 21.9998C25.278 21.9998 27.001 19.7771 27.001 17.8509C27.001 16.1225 25.6041 14.0334 23.7779 13.7603C23.8085 13.6214 23.842 13.4792 23.8252 13.3323C23.5845 11.2199 20.9508 10.3921 19.6768 10.5671C18.9583 10.6657 17.6557 10.9582 17.4413 11.8281C16.6443 9.65222 15.0026 9 12.9402 9C10.2821 9 8.12812 10.9491 8.12812 13.3542C8.12812 13.4932 8.13536 13.6303 8.151 13.765C6.35985 14.0652 5.00106 16.1444 5.00106 17.851L5.00098 17.8511ZM13.8429 19.2141H10.7517C10.3357 19.2141 10.0915 18.9841 10.0915 18.6627C10.0915 18.51 10.146 18.3564 10.2489 18.218L12.7816 14.7711H10.7131C10.3983 14.7711 10.1624 14.5944 10.1624 14.2812C10.1624 13.9886 10.4138 13.7595 10.7131 13.7595H13.5915C14.0471 13.7595 14.2528 14.0433 14.2528 14.311C14.2528 14.4797 14.1815 14.671 14.0792 14.8014L11.5621 18.2034H13.8429C14.1729 18.2034 14.4092 18.3795 14.4092 18.7087C14.4095 19.0001 14.1256 19.2141 13.8429 19.2141H13.8429ZM17.7693 19.2141H15.1345C14.8831 19.2141 14.6698 19.0912 14.6698 18.8391C14.6698 18.716 14.733 18.601 14.7728 18.5395L16.55 16.1037H15.2366C14.9529 16.1037 14.7249 15.9277 14.7249 15.6209C14.7249 15.3146 14.9529 15.1388 15.2366 15.1388H17.8082C17.9111 15.1388 18.178 15.1844 18.178 15.4833C18.178 15.6287 18.146 15.6979 18.0603 15.8127L16.2754 18.2491H17.7695C18.0522 18.2491 18.2802 18.4247 18.2802 18.7312C18.28 19.0383 18.052 19.2141 17.7693 19.2141L17.7693 19.2141ZM21.552 19.2141H18.917C18.6664 19.2141 18.4537 19.0912 18.4537 18.8391C18.4537 18.716 18.5163 18.601 18.5565 18.5395L20.3333 16.1037H19.0199C18.7364 16.1037 18.5084 15.9277 18.5084 15.6209C18.5084 15.3146 18.7364 15.1388 19.0199 15.1388H21.5913C21.6947 15.1388 21.9621 15.1844 21.9621 15.4833C21.9621 15.6287 21.9294 15.6979 21.8434 15.8127L20.0583 18.2491H21.552C21.8357 18.2491 22.0637 18.4247 22.0637 18.7312C22.0637 19.0383 21.8357 19.2141 21.552 19.2141V19.2141Z" fill="white"/>
</svg>
