<svg width="59" height="62" viewBox="0 0 59 62" fill="none" xmlns="http://www.w3.org/2000/svg">
<circle cx="29.5" cy="32.5" r="29" stroke="white"/>
<circle cx="29.5" cy="32.5" r="26" stroke="white"/>
<circle cx="29.5" cy="32.5" r="20.75" stroke="white" stroke-width="1.5"/>
<path d="M49 16C49 24.0677 40.5144 31 29.5 31C18.4856 31 10 24.0677 10 16C10 7.93229 18.4856 1 29.5 1C40.5144 1 49 7.93229 49 16Z" fill="#2A3039" stroke="white" stroke-width="2"/>
<path d="M45.5 15C45.5 18.1143 43.7653 20.9776 40.8732 23.0809C37.9816 25.1839 33.9622 26.5 29.5 26.5C25.0378 26.5 21.0184 25.1839 18.1268 23.0809C15.2347 20.9776 13.5 18.1143 13.5 15C13.5 11.8857 15.2347 9.02244 18.1268 6.91909C21.0184 4.81609 25.0378 3.5 29.5 3.5C33.9622 3.5 37.9816 4.81609 40.8732 6.91909C43.7653 9.02244 45.5 11.8857 45.5 15Z" fill="#2A3039" stroke="white"/>
<path fill-rule="evenodd" clip-rule="evenodd" d="M29.7803 35.2197C29.4874 34.9268 29.0126 34.9268 28.7197 35.2197L25.2197 38.7197C24.9268 39.0126 24.9268 39.4874 25.2197 39.7803C25.5126 40.0732 25.9874 40.0732 26.2803 39.7803L28.5 37.5607V47.75C28.5 48.1642 28.8358 48.5 29.25 48.5C29.6642 48.5 30 48.1642 30 47.75V37.5607L32.2197 39.7803C32.5126 40.0732 32.9874 40.0732 33.2803 39.7803C33.5732 39.4874 33.5732 39.0126 33.2803 38.7197L29.7803 35.2197Z" fill="#00FBB7"/>
</svg>
