<svg width="226" height="30" viewBox="0 0 226 30" fill="none" xmlns="http://www.w3.org/2000/svg">
<path d="M113.796 1.24267C112.249 0.885316 110.666 0.723709 109.082 0.761471H88.3373L75.8281 29.3329H82.4886L85.9998 21.3129H100.279C102.015 21.3349 103.749 21.2041 105.463 20.9219C106.813 20.6898 108.112 20.211 109.297 19.5083C110.44 18.8186 111.438 17.9017 112.231 16.8116C113.149 15.4996 113.93 14.0916 114.559 12.6111L115.595 10.185C116.227 8.83116 116.684 7.39895 116.955 5.92438C117.163 4.89081 116.978 3.81466 116.436 2.91686C115.784 2.0478 114.845 1.45249 113.796 1.24267ZM108.906 10.2051L108.104 12.1399C107.688 13.2923 106.945 14.2909 105.971 15.0071C104.875 15.5546 103.659 15.8032 102.441 15.7289H88.4449L92.4548 6.67626H106.548C108.505 6.67626 109.13 7.05721 109.365 7.37801C109.6 7.69881 109.698 8.4507 108.925 10.2051H108.906Z" fill="white"/>
<path d="M129.621 8.78138C129.936 8.2886 130.341 7.86305 130.814 7.52825C131.281 7.19117 131.8 6.937 132.349 6.77637C133.076 6.62046 133.817 6.5465 134.56 6.55582H152.458L155.05 0.761332H136.858C135.084 0.735234 133.313 0.910062 131.577 1.28264C130.155 1.59515 128.797 2.16186 127.567 2.95682C126.371 3.75998 125.327 4.77901 124.486 5.96434C123.504 7.39676 122.669 8.92858 121.992 10.5358L118.138 19.3378C117.455 20.787 116.955 22.3199 116.652 23.8992C116.404 24.9677 116.561 26.0929 117.092 27.047C117.729 27.9581 118.674 28.594 119.742 28.8315C121.344 29.2224 122.987 29.3976 124.633 29.3528H142.531L145.084 23.5282H126.902C126.213 23.5445 125.524 23.484 124.848 23.3478C124.674 23.3251 124.506 23.2652 124.357 23.1719C124.207 23.0787 124.077 22.9541 123.977 22.8064C123.834 22.4464 123.813 22.0472 123.919 21.6736C124.1 20.984 124.342 20.3129 124.642 19.6686L125.444 17.8039H147.558L149.964 12.3102H127.85L128.516 10.7864C128.826 10.0863 129.196 9.41539 129.621 8.78138Z" fill="white"/>
<path d="M160.351 23.2676C160.155 23.2448 159.965 23.1782 159.797 23.0726C159.628 22.967 159.483 22.8248 159.373 22.6561C159.204 22.2755 159.173 21.8452 159.285 21.4431C159.463 20.7107 159.712 19.9987 160.029 19.3178L163.628 11.0872C163.966 10.3463 164.368 9.63834 164.831 8.97189C165.171 8.44174 165.605 7.98248 166.112 7.61851C166.613 7.2695 167.174 7.02116 167.765 6.88668C168.542 6.73482 169.332 6.66428 170.122 6.67615H187.619L190.172 0.761364H172.147C170.366 0.735095 168.589 0.909917 166.846 1.28267C165.438 1.6014 164.094 2.16784 162.875 2.95685C161.684 3.76303 160.644 4.78167 159.804 5.96437C158.828 7.38453 157.996 8.90279 157.32 10.4957L153.466 19.2977C152.786 20.7492 152.283 22.2813 151.97 23.8591C151.729 24.9291 151.89 26.0525 152.42 27.007C153.046 27.9283 153.983 28.5785 155.05 28.8315C156.652 29.2219 158.295 29.3971 159.941 29.3528H177.722L180.294 23.4882H162.523C161.793 23.4984 161.065 23.4244 160.351 23.2676Z" fill="white"/>
<path d="M73.9802 13.9543C73.4225 13.2625 72.6545 12.7824 71.7991 12.5909C70.5552 12.2981 69.2802 12.1667 68.0043 12.1999H56.5906C55.4169 12.1999 55.0746 11.9293 54.967 11.7689C54.8594 11.6085 54.7812 11.1273 55.2115 10.1448L55.6027 9.24255C55.9032 8.39127 56.4404 7.6489 57.1481 7.10721C57.398 6.96425 57.664 6.85315 57.9403 6.77638C58.5018 6.64595 59.0761 6.58204 59.6518 6.58591H79.2127L81.7947 0.761346H57.2459C55.9491 0.75357 54.679 1.13858 53.595 1.86804C52.511 2.59751 51.6613 3.63893 51.1527 4.8616C49.5193 8.87162 48.6978 10.8766 48.6978 10.9268L48.6391 11.0771C48.3322 11.8266 48.0996 12.6058 47.9447 13.4029C47.7656 14.2153 47.8803 15.0667 48.2674 15.7989C48.7175 16.5167 49.4166 17.0327 50.2235 17.2425C51.4249 17.5737 52.6672 17.7223 53.9107 17.6836H65.5886C66.8209 17.6836 67.3001 17.9343 67.4762 18.1448C67.6522 18.3553 67.5642 19.2075 67.3392 19.7388L66.6644 21.2526C66.4002 22.0051 65.8883 22.6396 65.2169 23.0471C64.4392 23.3867 63.5965 23.5409 62.7522 23.4982H43.1914L40.6191 29.3328H65.1191C66.4175 29.3425 67.6897 28.9585 68.7756 28.2289C69.8616 27.4993 70.7128 26.4568 71.2221 25.2325L73.7063 19.2175L74.0877 18.2751C74.3099 17.6454 74.4673 16.9936 74.5572 16.3303C74.6725 15.4916 74.4656 14.6397 73.9802 13.9543Z" fill="white"/>
<path d="M199.189 9.24261C199.489 8.38834 200.03 7.64497 200.744 7.10728C200.991 6.96425 201.253 6.85312 201.527 6.77645C202.088 6.64601 202.662 6.5821 203.238 6.58597H222.799L225.381 0.761412H200.93C199.632 0.751654 198.359 1.13573 197.273 1.86532C196.188 2.59491 195.336 3.63741 194.827 4.86166L192.372 10.9268L192.225 11.2978C191.962 11.9803 191.756 12.6846 191.609 13.403C191.416 14.2137 191.517 15.0689 191.893 15.809C192.342 16.5275 193.042 17.0437 193.849 17.2526C195.047 17.5828 196.286 17.7314 197.526 17.6937H209.214C210.437 17.6937 210.916 17.9444 211.092 18.1549C211.268 18.3654 211.18 19.2176 210.955 19.7489L210.29 21.2627C210.019 22.0115 209.509 22.6441 208.842 23.0572C208.064 23.3948 207.222 23.549 206.378 23.5083H186.817L184.264 29.3328H208.774C210.071 29.3406 211.341 28.9556 212.425 28.2261C213.509 27.4967 214.358 26.4553 214.867 25.2326L217.351 19.2176L217.752 18.215L217.694 18.2652C217.912 17.6417 218.066 16.9966 218.153 16.3404C218.291 15.4984 218.101 14.6349 217.625 13.9343C217.067 13.2425 216.3 12.7624 215.444 12.5709C214.21 12.2806 212.945 12.1493 211.679 12.18H200.236C199.072 12.18 198.72 11.9093 198.612 11.7489C198.504 11.5885 198.426 11.1073 198.857 10.1248L199.189 9.24261Z" fill="white"/>
<path d="M47.6445 0.761719L44.1127 7.60969H19.9796L15.8075 15.2732L19.9223 22.6132H29.0182L30.9593 18.8084H22.1196L20.1583 15.2732L22.0657 11.6875H42.0064L32.9005 29.3331H16.1277L8.2417 15.2732L16.1041 0.761719H47.6445Z" fill="#01F9B6"/>
<path d="M11.7067 29.3332L6.10561 19.2095L0.619141 29.3332H11.7067Z" fill="white"/>
</svg>
