<svg width="17" height="10" viewBox="0 0 17 10" fill="none" xmlns="http://www.w3.org/2000/svg">
<path d="M15.2432 2.35352H16.1213C16.1213 2.35352 16.3526 2.3564 16.5759 2.4684C16.7991 2.5804 17.0001 2.78444 17.0001 3.23481V6.76549C17.0001 7.21727 16.7991 7.41976 16.5759 7.53175C16.3526 7.64375 16.1213 7.64664 16.1213 7.64664H15.2432V2.35352Z" fill="#564E69"/>
<path d="M1.46722 0C1.46722 0 1.08817 0.00354493 0.718488 0.18894C0.348709 0.374465 0 0.732391 0 1.46938V8.5304C0 9.26595 0.348709 9.6253 0.718488 9.81084C1.08813 9.99637 1.46722 9.99979 1.46722 9.99979H13.1897C13.1897 9.99979 13.5687 9.99624 13.9385 9.81084C14.3082 9.62532 14.6569 9.26793 14.6569 8.5304V1.46938C14.6569 0.729365 14.3082 0.374482 13.9385 0.18894C13.5687 0.00354593 13.1897 0 13.1897 0H1.46722ZM1.75915 0.881157H3.81034C3.81034 0.881157 4.01983 0.878794 4.23626 0.987511C4.45268 1.0961 4.69082 1.33231 4.69082 1.76521V8.23464C4.69082 8.66674 4.45267 8.90374 4.23626 9.01234C4.01983 9.12093 3.81034 9.11633 3.81034 9.11633H1.75915C1.75915 9.11633 1.55149 9.12106 1.33507 9.01234C1.11852 8.90376 0.880509 8.66768 0.880509 8.23464V1.76521C0.880509 1.32915 1.11853 1.09611 1.33507 0.987511C1.55149 0.878794 1.75915 0.881157 1.75915 0.881157ZM6.15402 0.881157H8.20521C8.20521 0.881157 8.41522 0.878794 8.63163 0.987511C8.84819 1.0961 9.08619 1.33177 9.08619 1.76467V8.23444C9.08619 8.66654 8.84818 8.90303 8.63163 9.0116C8.41521 9.12019 8.20521 9.11559 8.20521 9.11559H6.15402C6.15402 9.11559 5.94689 9.12019 5.73045 9.0116C5.51389 8.90302 5.27589 8.66748 5.27589 8.23444V1.76467C5.27589 1.32848 5.5139 1.09608 5.73045 0.987511C5.94687 0.878794 6.15402 0.881157 6.15402 0.881157ZM10.5506 0.881157H12.6018C12.6018 0.881157 12.8118 0.878794 13.0282 0.987511C13.2447 1.0961 13.4827 1.33231 13.4827 1.76521V8.23464C13.4827 8.66674 13.2447 8.90374 13.0282 9.01234C12.8118 9.12093 12.6018 9.11633 12.6018 9.11633H10.5506C10.5506 9.11633 10.3434 9.12106 10.127 9.01234C9.91044 8.90376 9.67243 8.66768 9.67243 8.23464V1.76521C9.67243 1.32915 9.91045 1.09611 10.127 0.987511C10.3434 0.878794 10.5506 0.881157 10.5506 0.881157ZM1.75915 1.46938C1.75915 1.46938 1.67331 1.47463 1.59663 1.5131C1.51995 1.55157 1.46722 1.61355 1.46722 1.7652V8.23464C1.46722 8.3855 1.51995 8.44826 1.59663 8.48673C1.67331 8.5252 1.75915 8.53045 1.75915 8.53045H3.81034C3.81034 8.53045 3.89565 8.5252 3.97233 8.48673C4.04901 8.44826 4.10461 8.38891 4.10461 8.23464V1.7652C4.10461 1.61171 4.049 1.55157 3.97233 1.5131C3.89565 1.47463 3.81034 1.46938 3.81034 1.46938H1.75915ZM6.15402 1.46938C6.15402 1.46938 6.06871 1.47463 5.99203 1.5131C5.91535 1.55157 5.8621 1.61302 5.8621 1.76467V8.23445C5.8621 8.38531 5.91535 8.44754 5.99203 8.48602C6.06871 8.52436 6.15402 8.52961 6.15402 8.52961H8.20521C8.20521 8.52961 8.29118 8.52449 8.36773 8.48602C8.44441 8.44755 8.49949 8.38873 8.49949 8.23445V1.76467C8.49949 1.61105 8.44441 1.55158 8.36773 1.5131C8.29118 1.47463 8.20521 1.46938 8.20521 1.46938H6.15402ZM10.5506 1.46938C10.5506 1.46938 10.4653 1.47463 10.3886 1.5131C10.3119 1.55157 10.2586 1.61355 10.2586 1.7652V8.23464C10.2586 8.3855 10.3119 8.44826 10.3886 8.48673C10.4653 8.5252 10.5506 8.53045 10.5506 8.53045H12.6018C12.6018 8.53045 12.6877 8.5252 12.7643 8.48673C12.841 8.44826 12.896 8.38891 12.896 8.23464V1.7652C12.896 1.61171 12.841 1.55157 12.7643 1.5131C12.6877 1.47463 12.6018 1.46938 12.6018 1.46938H10.5506Z" fill="#564E69"/>
<path d="M1.75921 1.46924C1.75921 1.46924 1.67338 1.47449 1.5967 1.51296C1.52002 1.55143 1.46729 1.61341 1.46729 1.76506V8.23449C1.46729 8.38536 1.52002 8.44812 1.5967 8.48659C1.67338 8.52506 1.75921 8.53031 1.75921 8.53031H3.8104C3.8104 8.53031 3.89571 8.52506 3.97239 8.48659C4.04907 8.44812 4.10468 8.38877 4.10468 8.23449V1.76506C4.10468 1.61157 4.04907 1.55143 3.97239 1.51296C3.89571 1.47449 3.8104 1.46924 3.8104 1.46924H1.75921Z" fill="#EE1D52"/>
</svg>
