<svg width="59" height="59" viewBox="0 0 59 59" fill="none" xmlns="http://www.w3.org/2000/svg">
<circle cx="29.5" cy="29.5" r="29" stroke="white"/>
<circle cx="29.5" cy="29.5" r="26" stroke="white"/>
<circle cx="29.5" cy="29.5" r="20.5" stroke="white" stroke-width="2"/>
<circle cx="29.5" cy="29.5" r="16.25" stroke="white" stroke-width="0.5"/>
<path d="M22.996 34.0001H29.152V32.4161H24.94V25.6001H22.996V34.0001Z" fill="white"/>
<path d="M32.9513 34.1441C35.3513 34.1441 36.5153 32.9441 36.5153 31.5401C36.5153 28.4561 31.6313 29.5241 31.6313 27.9761C31.6313 27.4481 32.0753 27.0161 33.2273 27.0161C33.9713 27.0161 34.7753 27.2321 35.5553 27.6761L36.1553 26.2001C35.3753 25.7081 34.2953 25.4561 33.2393 25.4561C30.8513 25.4561 29.6993 26.6441 29.6993 28.0721C29.6993 31.1921 34.5833 30.1121 34.5833 31.6841C34.5833 32.2001 34.1153 32.5841 32.9633 32.5841C31.9553 32.5841 30.8993 32.2241 30.1913 31.7081L29.5313 33.1721C30.2753 33.7481 31.6193 34.1441 32.9513 34.1441Z" fill="white"/>
</svg>
