<svg width="15" height="14" viewBox="0 0 15 14" fill="none" xmlns="http://www.w3.org/2000/svg">
<g clip-path="url(#clip0_423_1249)">
<path d="M9.01921 10.1129H6.01281V10.3435C6.01281 11.2659 6.01281 12.1553 6.01281 13.0776C6.01281 13.7035 5.59703 14.0329 5.11729 14C4.44565 14 3.74202 14 3.07038 14C2.55865 14 2.23882 13.7035 2.23882 13.1435C2.23882 11.4306 2.23882 9.71765 2.23882 8.00471V7.77412H1.66313C1.37528 7.77412 1.08744 7.77412 0.767608 7.77412C0.383813 7.77412 0.127949 7.57647 1.73524e-05 7.28C-0.127914 6.95059 1.73636e-05 6.62118 0.255881 6.39059C1.31132 5.46824 2.33477 4.54588 3.39021 3.62353C4.76548 2.43765 6.07678 1.25176 7.42006 0.0658824C7.42006 0.0658824 7.48403 0.0329412 7.51601 0C7.67592 0.131765 7.80386 0.263529 7.96377 0.395294C10.2026 2.37176 12.4414 4.34824 14.6802 6.32471C14.8721 6.48941 15 6.65412 15.032 6.91765C15.032 7.37882 14.7442 7.70824 14.2964 7.74118C13.8486 7.74118 13.4009 7.74118 12.9851 7.74118H12.7612V7.97177C12.7612 9.65176 12.7612 11.3647 12.7612 13.0447C12.7612 13.6706 12.3454 13.9671 11.8977 13.9671C11.226 13.9671 10.5224 13.9671 9.85076 13.9671C9.33904 13.9671 9.01921 13.6706 9.01921 13.1106C9.01921 12.1882 9.01921 11.2329 9.01921 10.3106C9.01921 10.2447 9.01921 10.1788 9.01921 10.08V10.1129Z" fill="white"/>
</g>
<defs>
<clipPath id="clip0_423_1249">
<rect width="15" height="14" fill="white"/>
</clipPath>
</defs>
</svg>
