<svg width="32" height="32" viewBox="0 0 32 32" fill="none" xmlns="http://www.w3.org/2000/svg">
<path fill-rule="evenodd" clip-rule="evenodd" d="M14.6758 5.00037H15.4297V9.38675C14.7444 9.52382 14.1961 10.2092 14.1961 10.9631V13.499C14.1961 14.39 14.95 15.1438 15.8409 15.1438C16.7319 15.1438 17.4173 14.3898 17.4173 13.499V10.9631C17.4173 10.2092 16.869 9.52385 16.1836 9.38675V5.00037H17.0061C20.8441 5.00037 23.9967 8.15292 23.9967 11.991V20.0098C23.9967 23.9163 20.8441 27.0004 17.0061 27.0004H14.6759C10.7694 27.0004 7.6853 23.9162 7.6853 20.0098V11.991C7.6853 8.15288 10.7694 5.00037 14.6759 5.00037H14.6758Z" fill="white"/>
<path fill-rule="evenodd" clip-rule="evenodd" d="M15.8409 10.0034C16.3207 10.0034 16.732 10.4146 16.732 10.9628V13.4987C16.732 14.047 16.3207 14.4582 15.8409 14.4582C15.2927 14.4582 14.8815 14.047 14.8815 13.4987V10.9628C14.8815 10.4146 15.2927 10.0034 15.8409 10.0034V10.0034Z" fill="white"/>
</svg>
