<svg width="54" height="70" viewBox="0 0 54 70" fill="none" xmlns="http://www.w3.org/2000/svg">
<path d="M40.5 8.4999C44.7418 7.86363 46.6667 10.8332 47 12.9999C47.2648 15.3831 47.5857 19.1688 47.6508 22.5M40.5 8.4999C46.5949 7.58567 44.5 12.9999 40.5 14M40.5 8.4999C34.4051 9.41414 29.2292 9.48674 25 9.11571M6.00001 12.9999C4.40001 15.3999 7.33335 17.6666 9.00001 18.4999L35.5 26.9999C37.5276 27.9123 40.8994 29.1947 43.5 29.6093M6.00001 12.9999C7.60001 10.5999 9.33334 7.66657 10 6.4999C10.3333 5.96459 11.2 5.01515 12 5.4999C13.5 6 18.1269 8.51272 25 9.11571M6.00001 12.9999C10 14.8333 22.5 17.6 40.5 14M40.5 14C42 16.0729 44.7 22.0967 43.5 29.6093M43.5 29.6093C45.1749 29.8763 46.5299 29.7834 47 28.9999C47.5645 28.0591 47.7085 25.4588 47.6508 22.5M15 1L25 9.11571M47.6508 22.5C50.1005 23.3333 54.5 26.8 52.5 34C50.5 41.2 41 50 36.5 53.5C31.6667 57.1667 21.8 65.5 21 69.5M1 21.5L35.5 33C39 34.3333 47.3 35.8 52.5 31" stroke="white"/>
</svg>
