<svg width="54" height="78" viewBox="0 0 54 78" fill="none" xmlns="http://www.w3.org/2000/svg">
<path d="M40.5 16.4999C44.7418 15.8636 46.6667 18.8332 47 20.9999C47.2648 23.3831 47.5857 27.1688 47.6508 30.5M40.5 16.4999C46.5949 15.5857 44.5 20.9999 40.5 22M40.5 16.4999C34.4051 17.4141 29.2292 17.4867 25 17.1157M6.00001 20.9999C4.40001 23.3999 7.33335 25.6666 9.00001 26.4999L35.5 34.9999C37.5276 35.9123 40.8994 37.1947 43.5 37.6093M6.00001 20.9999C7.60001 18.5999 9.33334 15.6666 10 14.4999C10.3333 13.9646 11.2 13.0152 12 13.4999C13.5 14 18.1269 16.5127 25 17.1157M6.00001 20.9999C10 22.8333 22.5 25.6 40.5 22M40.5 22C42 24.0729 44.7 30.0967 43.5 37.6093M43.5 37.6093C45.1749 37.8763 46.5299 37.7834 47 36.9999C47.5645 36.0591 47.7085 33.4588 47.6508 30.5M15 9L25 17.1157M47.6508 30.5C50.1005 31.3333 54.5 34.8 52.5 42C50.5 49.2 41 58 36.5 61.5C31.6667 65.1667 21.8 73.5 21 77.5M1 29.5L35.5 41C39 42.3333 48 44 53 38.1495" stroke="white" stroke-opacity="0.3"/>
<path d="M21 77.5C21.8 73.5 31.6667 65.1667 36.5 61.5C41 58 50.5 49.2 52.5 42C54.5 34.8 50.1005 31.3333 47.6508 30.5C38.2672 25.1667 18.5 13.3 14.5 8.5M1 29.5L35.5 41C39 42.3333 48 44 53 38.1495M12 13.4999C11.2 13.0152 10.3333 13.9646 10 14.4999C9.33334 15.6666 7.60001 18.5999 6.00001 20.9999C4.40001 23.3999 7.33335 25.6666 9.00001 26.4999L35.5 34.9999C37.5276 35.9123 40.8994 37.1947 43.5 37.6093C45.1749 37.8763 46.5299 37.7834 47 36.9999C47.3609 36.3984 47.55 35.1184 47.6243 33.5C47.6491 32.9594 47.6611 33.3811 47.6625 32.7778L12 13.4999Z" stroke="white"/>
<path fill-rule="evenodd" clip-rule="evenodd" d="M34.7197 13.2803C35.0126 13.5732 35.4874 13.5732 35.7803 13.2803L39.2803 9.78033C39.5732 9.48744 39.5732 9.01256 39.2803 8.71967C38.9874 8.42678 38.5126 8.42678 38.2197 8.71967L36 10.9393V0.75C36 0.335787 35.6642 0 35.25 0C34.8358 0 34.5 0.335787 34.5 0.75V10.9393L32.2803 8.71967C31.9874 8.42678 31.5126 8.42678 31.2197 8.71967C30.9268 9.01256 30.9268 9.48744 31.2197 9.78033L34.7197 13.2803Z" fill="#00FBB7"/>
</svg>
