<svg width="62" height="63" viewBox="0 0 62 63" fill="none" xmlns="http://www.w3.org/2000/svg">
<circle cx="31.5" cy="32.5" r="29" stroke="white"/>
<circle cx="31.5" cy="32.5" r="26" stroke="white"/>
<circle cx="31.5" cy="32.5" r="20.75" stroke="white" stroke-opacity="0.5" stroke-width="1.5"/>
<g clip-path="url(#clip0_464_960)">
<path fill-rule="evenodd" clip-rule="evenodd" d="M36.1659 13.8544C46.4181 16.6015 52.5021 27.1394 49.7551 37.3916C47.9424 44.1565 42.7366 49.1092 36.4553 50.9042L38.0357 45.0059C38.2585 44.1747 37.7651 43.3202 36.9339 43.0975C36.1026 42.8748 35.2482 43.3681 35.0255 44.1993L32.7931 52.5307C32.7866 52.553 32.7806 52.5755 32.775 52.5981L32.6595 53.0294C32.2585 54.5256 33.1465 56.0636 34.6428 56.4645L43.4728 58.8305C44.3041 59.0533 45.1585 58.56 45.3812 57.7287C45.604 56.8975 45.1106 56.043 44.2794 55.8203L37.2158 53.9276C44.5525 51.8656 50.6486 46.0979 52.7653 38.1982C55.9578 26.2835 48.8872 14.0367 36.9725 10.8442C25.0578 7.65166 12.811 14.7223 9.61852 26.637C6.72033 37.4532 12.2793 48.5403 22.2418 52.8834C23.0307 53.2273 23.949 52.8666 24.2929 52.0777C24.6368 51.2888 24.2761 50.3705 23.4872 50.0266C14.9172 46.2906 10.1356 36.748 12.6288 27.4436C15.3758 17.1914 25.9138 11.1074 36.1659 13.8544Z" fill="#00FBB7"/>
</g>
<path d="M51 16C51 24.0677 42.5144 31 31.5 31C20.4856 31 12 24.0677 12 16C12 7.93229 20.4856 1 31.5 1C42.5144 1 51 7.93229 51 16Z" fill="#2A3039" stroke="white" stroke-width="2"/>
<path d="M47.5 15C47.5 18.1143 45.7653 20.9776 42.8732 23.0809C39.9816 25.1839 35.9622 26.5 31.5 26.5C27.0378 26.5 23.0184 25.1839 20.1268 23.0809C17.2347 20.9776 15.5 18.1143 15.5 15C15.5 11.8857 17.2347 9.02244 20.1268 6.91909C23.0184 4.81609 27.0378 3.5 31.5 3.5C35.9622 3.5 39.9816 4.81609 42.8732 6.91909C45.7653 9.02244 47.5 11.8857 47.5 15Z" fill="#2A3039" stroke="white"/>
<defs>
<clipPath id="clip0_464_960">
<rect width="49.8629" height="49.8629" fill="white" transform="translate(61.7266 14.7883) rotate(105)"/>
</clipPath>
</defs>
</svg>
