<svg width="12" height="12" viewBox="0 0 12 12" fill="none" xmlns="http://www.w3.org/2000/svg">
<path d="M1.25928 6.59222L10.7408 6.59222C11.0681 6.59222 11.3334 6.32694 11.3334 5.99965C11.3334 5.67235 11.0681 5.40707 10.7408 5.40707L1.25928 5.40707C0.931995 5.40707 0.666727 5.67235 0.666727 5.99965C0.666727 6.32694 0.931995 6.59222 1.25928 6.59222ZM5.58102 10.3216C5.34957 10.553 5.34957 10.9282 5.58102 11.1596C5.81246 11.391 6.18767 11.391 6.4191 11.1596L11.1596 6.41891C11.3911 6.18745 11.3911 5.81224 11.1596 5.58079L6.4191 0.840106C6.18766 0.608652 5.81246 0.608652 5.58102 0.840107C5.34957 1.07146 5.34957 1.44667 5.58102 1.67812L9.90275 6L5.58102 10.3216Z" fill="white"/>
<path fill-rule="evenodd" clip-rule="evenodd" d="M5.10962 9.85017L7.701 7.25889L1.25928 7.25889C0.563785 7.25889 6.05714e-05 6.69511 6.05106e-05 5.99965C6.04498e-05 5.30418 0.563785 4.74041 1.25928 4.74041L7.70041 4.74041L5.10961 2.14953C4.61787 1.65778 4.61773 0.860387 5.1097 0.368608C5.60151 -0.123112 6.39876 -0.123065 6.89052 0.36871L11.6124 5.09079C11.8513 5.31997 12.0001 5.64244 12.0001 5.99965C12.0001 6.20685 11.95 6.40237 11.8614 6.57476C11.803 6.68844 11.7262 6.7951 11.631 6.8903L6.89052 11.631C6.89052 11.631 6.89053 11.631 6.89052 11.631C6.39876 12.1228 5.60152 12.1228 5.10972 11.6311M6.4191 11.1596L11.1596 6.41891C11.1918 6.38672 11.2195 6.35176 11.2428 6.31479C11.3002 6.22351 11.3334 6.11546 11.3334 5.99965C11.3334 5.83598 11.2669 5.68803 11.1596 5.58079C11.1554 5.57654 11.1513 5.57216 11.1469 5.56804L6.4191 0.840106C6.18766 0.608652 5.81246 0.608652 5.58102 0.840107C5.34957 1.07146 5.34957 1.44667 5.58102 1.67812L9.30984 5.40707L1.25928 5.40707C0.931995 5.40707 0.666727 5.67235 0.666727 5.99965C0.666727 6.32694 0.931995 6.59222 1.25928 6.59222L9.31051 6.59222L5.58102 10.3216C5.34957 10.553 5.34957 10.9282 5.58102 11.1596C5.81246 11.391 6.18767 11.391 6.4191 11.1596ZM5.10962 9.85017C4.61793 10.3419 4.61783 11.1393 5.10972 11.6311L5.10962 9.85017Z" fill="white"/>
</svg>
