<svg width="59" height="59" viewBox="0 0 59 59" fill="none" xmlns="http://www.w3.org/2000/svg">
<circle cx="29.5" cy="29.5" r="29" stroke="white"/>
<circle cx="29.5" cy="29.5" r="26" stroke="white"/>
<circle cx="29.5" cy="29.5" r="20.5" stroke="white" stroke-width="2"/>
<circle cx="29.5" cy="29.5" r="16.25" stroke="white" stroke-width="0.5"/>
<path d="M29.44 33.544L27.556 30.844C28.648 30.376 29.284 29.452 29.284 28.192C29.284 26.308 27.88 25.144 25.636 25.144H22V33.544H23.944V31.204H25.636H25.732L27.352 33.544H29.44ZM27.316 28.192C27.316 29.104 26.716 29.656 25.528 29.656H23.944V26.728H25.528C26.716 26.728 27.316 27.268 27.316 28.192Z" fill="white"/>
<path d="M33.5842 33.688C35.9842 33.688 37.1482 32.488 37.1482 31.084C37.1482 28 32.2642 29.068 32.2642 27.52C32.2642 26.992 32.7082 26.56 33.8602 26.56C34.6042 26.56 35.4082 26.776 36.1882 27.22L36.7882 25.744C36.0082 25.252 34.9282 25 33.8722 25C31.4842 25 30.3322 26.188 30.3322 27.616C30.3322 30.736 35.2162 29.656 35.2162 31.228C35.2162 31.744 34.7482 32.128 33.5962 32.128C32.5882 32.128 31.5322 31.768 30.8242 31.252L30.1642 32.716C30.9082 33.292 32.2522 33.688 33.5842 33.688Z" fill="white"/>
</svg>
