<svg width="38" height="60" viewBox="0 0 38 60" fill="none" xmlns="http://www.w3.org/2000/svg">
<path d="M36.8392 4.50411C37.1465 2.39272 35.5093 0.5 33.3757 0.5H4.5C2.56701 0.5 1 2.067 1 4V56C1 57.933 2.567 59.5 4.5 59.5H25.8072C27.5454 59.5 29.0203 58.2243 29.2707 56.5041L36.8392 4.50411Z" stroke="white"/>
<path d="M17.8735 35.0001L15.9895 32.3001C17.0815 31.8321 17.7175 30.9081 17.7175 29.6481C17.7175 27.7641 16.3135 26.6001 14.0695 26.6001H10.4335V35.0001H12.3775V32.6601H14.0695H14.1655L15.7855 35.0001H17.8735ZM15.7495 29.6481C15.7495 30.5601 15.1495 31.1121 13.9615 31.1121H12.3775V28.1841H13.9615C15.1495 28.1841 15.7495 28.7241 15.7495 29.6481Z" fill="white"/>
<path d="M20.8805 35.0001H22.8245V28.1841H25.5125V26.6001H18.1925V28.1841H20.8805V35.0001Z" fill="white"/>
</svg>
