<svg width="18" height="18" viewBox="0 0 18 18" fill="none" xmlns="http://www.w3.org/2000/svg">
<path d="M6.81027 0C3.05771 0 0 3.05771 0 6.81029C0 10.5629 3.05771 13.6206 6.81027 13.6206C8.30209 13.6206 9.68454 13.1389 10.8083 12.3209L11.2491 12.7617C11.2034 12.9002 11.1805 13.0451 11.1883 13.195C11.2094 13.6015 11.4233 13.9088 11.6444 14.1298L15.0495 17.5426C15.2723 17.7655 15.5868 17.9786 15.992 17.9987C16.3971 18.0186 16.7764 17.8147 17.0485 17.5426L17.5425 17.0485C17.8149 16.7761 18.0191 16.3978 17.9986 15.992C17.9781 15.5862 17.7646 15.2716 17.5425 15.0496L14.1298 11.6444C13.9087 11.4233 13.6014 11.2094 13.1949 11.1884C13.0477 11.1808 12.9056 11.2049 12.7693 11.2492L12.3208 10.8007C13.1367 9.67787 13.6205 8.29992 13.6205 6.81029C13.6205 3.05771 10.5628 0 6.81027 0ZM6.81027 1.45934C9.77415 1.45934 12.1612 3.8464 12.1612 6.81029C12.1612 9.77418 9.77415 12.1613 6.81027 12.1613C3.84639 12.1613 1.45934 9.77418 1.45934 6.81029C1.45934 3.8464 3.84639 1.45934 6.81027 1.45934ZM6.81027 2.18903C4.26667 2.18903 2.18902 4.26667 2.18902 6.81029C2.18765 6.90698 2.20551 7.00299 2.24157 7.09272C2.27762 7.18244 2.33115 7.2641 2.39904 7.33296C2.46694 7.40182 2.54784 7.4565 2.63704 7.49382C2.72625 7.53114 2.82199 7.55037 2.91869 7.55037C3.01539 7.55037 3.11112 7.53114 3.20033 7.49382C3.28954 7.4565 3.37044 7.40182 3.43833 7.33296C3.50622 7.2641 3.55975 7.18244 3.59581 7.09272C3.63187 7.00299 3.64973 6.90698 3.64836 6.81029C3.64836 5.05537 5.05535 3.64837 6.81027 3.64837C6.90696 3.64974 7.00296 3.63188 7.09269 3.59583C7.18242 3.55977 7.26408 3.50624 7.33294 3.43835C7.4018 3.37046 7.45648 3.28956 7.49381 3.20035C7.53113 3.11114 7.55035 3.0154 7.55035 2.9187C7.55035 2.822 7.53113 2.72625 7.49381 2.63705C7.45648 2.54784 7.4018 2.46694 7.33294 2.39904C7.26408 2.33115 7.18242 2.27762 7.09269 2.24157C7.00296 2.20551 6.90696 2.18766 6.81027 2.18903ZM13.1341 12.7085L16.4784 16.0529L16.0528 16.4785L12.7085 13.1342L13.1341 12.7085Z" fill="#00FBB7"/>
</svg>
